<?xml version="1.0" encoding="UTF-8"?>
<svg version="1.1" xmlns="http://www.w3.org/2000/svg" width="1080" height="1080">
<path d="M0 0 C356.4 0 712.8 0 1080 0 C1080 356.4 1080 712.8 1080 1080 C723.6 1080 367.2 1080 0 1080 C0 723.6 0 367.2 0 0 Z " fill="#F1F0EB" transform="translate(0,0)"/>
<path d="M0 0 C13.86 0 27.72 0 42 0 C42 13.86 42 27.72 42 42 C37.38 42 32.76 42 28 42 C28 46.62 28 51.24 28 56 C51.1 56 74.2 56 98 56 C98 60.62 98 65.24 98 70 C120.77 70 143.54 70 167 70 C167 74.62 167 79.24 167 84 C171.62 84 176.24 84 181 84 C181 88.62 181 93.24 181 98 C185.62 98 190.24 98 195 98 C195 107.24 195 116.48 195 126 C204.24 126 213.48 126 223 126 C223 130.62 223 135.24 223 140 C227.62 140 232.24 140 237 140 C237 167.39 237 194.78 237 223 C232.38 223 227.76 223 223 223 C223 227.62 223 232.24 223 237 C218.38 237 213.76 237 209 237 C209 241.62 209 246.24 209 251 C204.38 251 199.76 251 195 251 C195 260.24 195 269.48 195 279 C190.38 279 185.76 279 181 279 C181 283.62 181 288.24 181 293 C176.38 293 171.76 293 167 293 C167 297.62 167 302.24 167 307 C70.64 307 -25.72 307 -125 307 C-125 302.38 -125 297.76 -125 293 C-129.62 293 -134.24 293 -139 293 C-139 283.76 -139 274.52 -139 265 C-143.62 265 -148.24 265 -153 265 C-153 260.38 -153 255.76 -153 251 C-162.24 251 -171.48 251 -181 251 C-181 246.38 -181 241.76 -181 237 C-185.62 237 -190.24 237 -195 237 C-195 209.28 -195 181.56 -195 153 C-190.38 153 -185.76 153 -181 153 C-181 148.38 -181 143.76 -181 139 C-171.76 139 -162.52 139 -153 139 C-153 134.38 -153 129.76 -153 125 C-148.71 125 -144.42 125 -140 125 C-140 116.09 -140 107.18 -140 98 C-135.38 98 -130.76 98 -126 98 C-126 93.38 -126 88.76 -126 84 C-121.05 84 -116.1 84 -111 84 C-111 79.38 -111 74.76 -111 70 C-69.75 70 -28.5 70 14 70 C14 65.38 14 60.76 14 56 C9.38 56 4.76 56 0 56 C0 51.38 0 46.76 0 42 C-4.62 42 -9.24 42 -14 42 C-14 32.76 -14 23.52 -14 14 C-9.38 14 -4.76 14 0 14 C0 9.38 0 4.76 0 0 Z " fill="#030303" transform="translate(519,233)"/>
<path d="M0 0 C18.48 0 36.96 0 56 0 C56 4.62 56 9.24 56 14 C69.86 14 83.72 14 98 14 C98 23.24 98 32.48 98 42 C102.29 42 106.58 42 111 42 C111 78.63 111 115.26 111 153 C106.71 153 102.42 153 98 153 C98 162.24 98 171.48 98 181 C93.05 181 88.1 181 83 181 C83 185.62 83 190.24 83 195 C46.37 195 9.74 195 -28 195 C-28 190.38 -28 185.76 -28 181 C-46.48 181 -64.96 181 -84 181 C-84 185.62 -84 190.24 -84 195 C-93.24 195 -102.48 195 -112 195 C-112 190.38 -112 185.76 -112 181 C-116.29 181 -120.58 181 -125 181 C-125 157.9 -125 134.8 -125 111 C-129.62 111 -134.24 111 -139 111 C-139 106.71 -139 102.42 -139 98 C-132.565 97.505 -132.565 97.505 -126 97 C-125.67 74.23 -125.34 51.46 -125 28 C-120.71 28 -116.42 28 -112 28 C-112 23.38 -112 18.76 -112 14 C-75.04 14 -38.08 14 0 14 C0 9.38 0 4.76 0 0 Z " fill="#D1D1CF" transform="translate(547,303)"/>
<path d="M0 0 C7.14610298 4.49532632 11.88597397 10.85755327 14.16015625 18.9375 C14.33756277 21.5074752 14.42243425 23.96416242 14.40066528 26.53048706 C14.40237413 27.27473659 14.40408298 28.01898611 14.40584362 28.78578866 C14.40912625 31.26858734 14.3981552 33.75111311 14.38720703 36.23388672 C14.38664265 38.01800022 14.38696 39.80211419 14.38809204 41.58622742 C14.38866551 46.42253554 14.37691209 51.25874431 14.36294413 56.09502935 C14.35043584 61.15189961 14.34926619 66.20877218 14.34689331 71.26565552 C14.34067884 80.83841361 14.32426844 90.41112598 14.30419433 99.98386395 C14.28183434 110.88342655 14.27084164 121.78299134 14.26080346 132.68257117 C14.2399022 155.10090612 14.20472683 177.5192005 14.16015625 199.9375 C14.93408722 199.16324173 15.70801819 198.38898346 16.50540161 197.59126282 C19.06972014 195.02790232 21.64139979 192.47216427 24.21484375 189.91796875 C25.66103899 188.47915542 27.1067477 187.03985519 28.55224609 185.6003418 C29.53636825 184.62124233 30.52138687 183.64304305 31.50732422 182.66577148 C36.16545426 178.04732815 40.80083969 173.44620862 45.0625 168.453125 C47.43905733 165.67893771 49.73790428 163.47081229 52.84765625 161.5 C53.57339844 161.02691406 54.29914063 160.55382812 55.046875 160.06640625 C60.08182572 157.37675605 65.57705626 157.24862396 71.16015625 157.9375 C78.49914401 160.27114544 83.89962772 164.5467072 88.16015625 170.9375 C91.16413307 176.9961965 90.94252574 183.33806849 90.16015625 189.9375 C87.50461479 197.75784455 81.10680818 203.33262839 75.2578125 208.8828125 C73.00320232 211.04752594 70.93965341 213.30629189 68.90625 215.6796875 C63.78508058 221.61554041 58.12420455 227.01769123 52.54296875 232.515625 C48.13681274 236.8816033 43.90420765 241.29953139 39.8671875 246.0078125 C36.16764395 250.18990521 32.1052748 254.02964426 28.12109375 257.9375 C24.15349257 261.85914441 20.39267005 265.88242021 16.75 270.10742188 C2.67783886 286.30596608 2.67783886 286.30596608 -7.2578125 287.140625 C-17.78133099 287.31873815 -23.29977121 285.06521305 -30.96875 277.828125 C-35.00858849 273.81814804 -38.86765337 269.63363243 -42.73071289 265.4543457 C-48.51815627 259.21108418 -54.51649497 253.19726483 -60.5859375 247.22875977 C-63.9515272 243.90234906 -67.2229891 240.55798208 -70.30859375 236.96875 C-74.25171767 232.38571339 -78.53094773 228.17409911 -82.83984375 223.9375 C-87.87169727 218.99007356 -92.74066603 214.00279962 -97.33886719 208.64794922 C-99.1039368 206.63655076 -100.99882129 204.81384081 -102.96484375 203 C-109.12489925 196.80399087 -112.10800972 191.7714833 -112.40234375 182.875 C-112.05188759 174.51796838 -110.10407413 169.81234765 -104.02734375 164.125 C-97.6548196 158.97524801 -91.93278463 157.11777302 -83.83984375 157.9375 C-73.2320485 160.14745734 -65.41028273 168.75115452 -58.64453125 176.64453125 C-54.81068784 181.03880696 -50.73700753 185.15312832 -46.58984375 189.25 C-45.8834375 189.95189453 -45.17703125 190.65378906 -44.44921875 191.37695312 C-43.1466794 192.67085821 -41.84310523 193.96372315 -40.53808594 195.25512695 C-38.96727538 196.81125915 -37.40277232 198.37345931 -35.83984375 199.9375 C-35.84445271 199.00873865 -35.84906168 198.0799773 -35.85381031 197.12307167 C-35.96490327 174.50412835 -36.0470176 151.88522049 -36.09890461 129.26606178 C-36.12466499 118.32750363 -36.15977423 107.38912592 -36.21704102 96.45068359 C-36.26694215 86.91458207 -36.2991505 77.37861125 -36.31028622 67.84238279 C-36.31679359 62.79491006 -36.33204272 57.7478112 -36.36849403 52.70045853 C-36.40255949 47.94471364 -36.41287544 43.18949484 -36.40538216 38.43363953 C-36.406752 36.6930238 -36.4166215 34.95238955 -36.43587112 33.21187973 C-36.54808464 22.53764072 -36.00706185 13.94186517 -28.7421875 5.5 C-28.09378906 4.984375 -27.44539062 4.46875 -26.77734375 3.9375 C-26.12636719 3.40125 -25.47539063 2.865 -24.8046875 2.3125 C-17.90959121 -2.51269661 -7.88892422 -2.9515645 0 0 Z " fill="#F1F0EB" transform="translate(550.83984375,604.0625)"/>
<path d="M0 0 C4.6117722 4.24768492 6.3875427 8.22512809 8.375 14.1875 C8.375 30.0275 8.375 45.8675 8.375 62.1875 C85.595 62.1875 162.815 62.1875 242.375 62.1875 C242.375 46.0175 242.375 29.8475 242.375 13.1875 C249.12473147 -0.31196294 249.12473147 -0.31196294 256.76171875 -3.94921875 C263.06552765 -6.03164292 270.38486768 -5.58093762 276.4609375 -2.91796875 C282.8778481 0.78812451 287.08468513 5.0523783 289.375 12.1875 C289.65345772 14.90281074 289.79648103 17.38354863 289.77905273 20.09130859 C289.78934761 21.22695503 289.78934761 21.22695503 289.79985046 22.38554382 C289.81803644 24.86920337 289.81429239 27.35222615 289.80859375 29.8359375 C289.81315998 31.57557376 289.81846686 33.31520822 289.82447815 35.05484009 C289.83339352 38.69451237 289.8310047 42.33396505 289.82104492 45.97363281 C289.80956589 50.61938894 289.82975815 55.26438374 289.85896206 59.9100399 C289.87738119 63.50134025 289.87702012 67.09246015 289.87132454 70.68379593 C289.87117198 72.39567761 289.87716218 74.10757203 289.88961601 75.81940842 C290.01005049 95.08859979 290.01005049 95.08859979 283.71287537 102.01596069 C276.44842885 109.09129691 268.07192699 109.62850636 258.43276978 109.58190918 C257.2446763 109.58800028 256.05658282 109.59409139 254.83248651 109.60036707 C251.55190758 109.61409176 248.27164839 109.61446166 244.99105549 109.6089921 C241.44629309 109.60631412 237.90159389 109.62086803 234.3568573 109.63308716 C227.41895343 109.65411067 220.48113319 109.6586838 213.54320122 109.65689927 C207.90225827 109.65559015 202.26134134 109.65940345 196.62040329 109.66682434 C194.99373734 109.6689236 193.36707139 109.6710212 191.74040544 109.67311716 C190.52584146 109.67468245 190.52584146 109.67468245 189.28674082 109.67627937 C173.98336915 109.69516915 158.68004545 109.69413535 143.37666695 109.68731004 C129.38705937 109.68173491 115.39763494 109.70256094 101.40807016 109.73567051 C87.03173508 109.76943049 72.65548767 109.78457301 58.27911222 109.77995348 C50.21260441 109.7777112 42.1462659 109.78291664 34.07979202 109.80784607 C27.21261058 109.82888901 20.34569127 109.83242162 13.47849895 109.81354648 C9.97736824 109.80440706 6.47672588 109.80318953 2.97563362 109.82390213 C-0.82628985 109.84208371 -4.62691797 109.82935056 -8.42880249 109.80895996 C-9.52648307 109.82147781 -10.62416365 109.83399566 -11.75510728 109.84689283 C-19.78016081 109.75479257 -26.53498441 107.94126874 -32.5695461 102.4028182 C-37.79849777 96.84655805 -38.92638166 90.97233315 -38.8996582 83.47314453 C-38.90476913 82.72434021 -38.90988007 81.97553589 -38.91514587 81.20404053 C-38.9289808 78.74271524 -38.92808961 76.28167192 -38.92578125 73.8203125 C-38.92967179 72.09927264 -38.9340072 70.37823373 -38.93876648 68.65719604 C-38.94621577 65.0544727 -38.94594698 61.45184737 -38.94067383 57.84912109 C-38.9348837 53.24708733 -38.95180533 48.64545663 -38.9750185 44.04348946 C-38.98979771 40.48999715 -38.99062181 36.93660095 -38.98750877 33.38308334 C-38.98801997 31.6871244 -38.9932197 29.9911598 -39.00332069 28.29523087 C-39.01574823 25.91677416 -39.00885613 23.53909018 -38.99731445 21.16064453 C-39.00495819 20.4694754 -39.01260193 19.77830627 -39.02047729 19.06619263 C-38.95518326 12.93520963 -37.55109236 7.49881083 -33.57421875 2.7265625 C-23.09909342 -6.13839676 -11.70885408 -8.08468496 0 0 Z " fill="#F0EFEA" transform="translate(414.625,862.8125)"/>
<path d="M0 0 C4.62 0 9.24 0 14 0 C14 18.48 14 36.96 14 56 C9.38 56 4.76 56 0 56 C0 69.53 0 83.06 0 97 C4.62 97 9.24 97 14 97 C14 120.1 14 143.2 14 167 C18.62 167 23.24 167 28 167 C28 171.62 28 176.24 28 181 C46.15 181 64.3 181 83 181 C83 176.38 83 171.76 83 167 C96.86 167 110.72 167 125 167 C125 171.62 125 176.24 125 181 C161.96 181 198.92 181 237 181 C237 176.38 237 171.76 237 167 C245.91 167 254.82 167 264 167 C264 157.76 264 148.52 264 139 C268.62 139 273.24 139 278 139 C278 93.13 278 47.26 278 0 C282.62 0 287.24 0 292 0 C292 4.62 292 9.24 292 14 C296.62 14 301.24 14 306 14 C306 64.49 306 114.98 306 167 C301.38 167 296.76 167 292 167 C292 171.62 292 176.24 292 181 C287.38 181 282.76 181 278 181 C278 185.62 278 190.24 278 195 C190.88 195 103.76 195 14 195 C14 190.38 14 185.76 14 181 C9.38 181 4.76 181 0 181 C0 176.38 0 171.76 0 167 C-4.62 167 -9.24 167 -14 167 C-14 121.13 -14 75.26 -14 28 C-9.38 28 -4.76 28 0 28 C0 18.76 0 9.52 0 0 Z " fill="#D0D0CE" transform="translate(394,331)"/>
<path d="M0 0 C7.14610298 4.49532632 11.88597397 10.85755327 14.16015625 18.9375 C14.33756277 21.5074752 14.42243425 23.96416242 14.40066528 26.53048706 C14.40237413 27.27473659 14.40408298 28.01898611 14.40584362 28.78578866 C14.40912625 31.26858734 14.3981552 33.75111311 14.38720703 36.23388672 C14.38664265 38.01800022 14.38696 39.80211419 14.38809204 41.58622742 C14.38866551 46.42253554 14.37691209 51.25874431 14.36294413 56.09502935 C14.35043584 61.15189961 14.34926619 66.20877218 14.34689331 71.26565552 C14.34067884 80.83841361 14.32426844 90.41112598 14.30419433 99.98386395 C14.28183434 110.88342655 14.27084164 121.78299134 14.26080346 132.68257117 C14.2399022 155.10090612 14.20472683 177.5192005 14.16015625 199.9375 C14.93408722 199.16324173 15.70801819 198.38898346 16.50540161 197.59126282 C19.06972014 195.02790232 21.64139979 192.47216427 24.21484375 189.91796875 C25.66103899 188.47915542 27.1067477 187.03985519 28.55224609 185.6003418 C29.53636825 184.62124233 30.52138687 183.64304305 31.50732422 182.66577148 C36.16545426 178.04732815 40.80083969 173.44620862 45.0625 168.453125 C47.43905733 165.67893771 49.73790428 163.47081229 52.84765625 161.5 C53.57339844 161.02691406 54.29914063 160.55382812 55.046875 160.06640625 C60.08182572 157.37675605 65.57705626 157.24862396 71.16015625 157.9375 C78.49914401 160.27114544 83.89962772 164.5467072 88.16015625 170.9375 C91.16413307 176.9961965 90.94252574 183.33806849 90.16015625 189.9375 C87.50461479 197.75784455 81.10680818 203.33262839 75.2578125 208.8828125 C73.00320232 211.04752594 70.93965341 213.30629189 68.90625 215.6796875 C63.78508058 221.61554041 58.12420455 227.01769123 52.54296875 232.515625 C48.13681274 236.8816033 43.90420765 241.29953139 39.8671875 246.0078125 C36.16764395 250.18990521 32.1052748 254.02964426 28.12109375 257.9375 C24.15349257 261.85914441 20.39267005 265.88242021 16.75 270.10742188 C2.67783886 286.30596608 2.67783886 286.30596608 -7.2578125 287.140625 C-17.78133099 287.31873815 -23.29977121 285.06521305 -30.96875 277.828125 C-35.00858849 273.81814804 -38.86765337 269.63363243 -42.73071289 265.4543457 C-48.51815627 259.21108418 -54.51649497 253.19726483 -60.5859375 247.22875977 C-63.9515272 243.90234906 -67.2229891 240.55798208 -70.30859375 236.96875 C-74.25171767 232.38571339 -78.53094773 228.17409911 -82.83984375 223.9375 C-87.87169727 218.99007356 -92.74066603 214.00279962 -97.33886719 208.64794922 C-99.1039368 206.63655076 -100.99882129 204.81384081 -102.96484375 203 C-109.12489925 196.80399087 -112.10800972 191.7714833 -112.40234375 182.875 C-112.05188759 174.51796838 -110.10407413 169.81234765 -104.02734375 164.125 C-97.6548196 158.97524801 -91.93278463 157.11777302 -83.83984375 157.9375 C-73.2320485 160.14745734 -65.41028273 168.75115452 -58.64453125 176.64453125 C-54.81068784 181.03880696 -50.73700753 185.15312832 -46.58984375 189.25 C-45.8834375 189.95189453 -45.17703125 190.65378906 -44.44921875 191.37695312 C-43.1466794 192.67085821 -41.84310523 193.96372315 -40.53808594 195.25512695 C-38.96727538 196.81125915 -37.40277232 198.37345931 -35.83984375 199.9375 C-35.84445271 199.00873865 -35.84906168 198.0799773 -35.85381031 197.12307167 C-35.96490327 174.50412835 -36.0470176 151.88522049 -36.09890461 129.26606178 C-36.12466499 118.32750363 -36.15977423 107.38912592 -36.21704102 96.45068359 C-36.26694215 86.91458207 -36.2991505 77.37861125 -36.31028622 67.84238279 C-36.31679359 62.79491006 -36.33204272 57.7478112 -36.36849403 52.70045853 C-36.40255949 47.94471364 -36.41287544 43.18949484 -36.40538216 38.43363953 C-36.406752 36.6930238 -36.4166215 34.95238955 -36.43587112 33.21187973 C-36.54808464 22.53764072 -36.00706185 13.94186517 -28.7421875 5.5 C-28.09378906 4.984375 -27.44539062 4.46875 -26.77734375 3.9375 C-26.12636719 3.40125 -25.47539063 2.865 -24.8046875 2.3125 C-17.90959121 -2.51269661 -7.88892422 -2.9515645 0 0 Z M-22.83984375 11.9375 C-26.47330102 17.30663388 -27.42384518 21.03367122 -27.35882568 27.44798279 C-27.36632694 28.27884134 -27.37382819 29.10969989 -27.38155675 29.96573597 C-27.40177526 32.73579677 -27.39374282 35.50503447 -27.38574219 38.27514648 C-27.39448037 40.26630968 -27.40496701 42.25746586 -27.41706848 44.24861145 C-27.44491888 49.64477498 -27.44833337 55.04070927 -27.44734859 60.43693423 C-27.45047849 66.07975821 -27.47609836 71.72247906 -27.49932861 77.36524963 C-27.53988611 88.04647089 -27.56022878 98.72763109 -27.57330251 109.40891749 C-27.58917336 121.57093465 -27.62758939 133.73284793 -27.66789579 145.89480484 C-27.75029137 170.90900169 -27.80438566 195.92319568 -27.83984375 220.9375 C-30.70575124 218.09662732 -33.56812072 215.25223864 -36.42749023 212.40478516 C-37.39726648 211.43998541 -38.36794445 210.47609105 -39.33959961 209.51318359 C-44.5456968 204.35273037 -49.66244574 199.17660396 -54.41552448 193.59255791 C-58.03504513 189.38667766 -62.05297942 185.53843956 -65.97485352 181.6171875 C-67.54017765 180.04964793 -69.09728666 178.47423039 -70.65429688 176.8984375 C-71.65706317 175.89274145 -72.66030138 174.88751565 -73.6640625 173.8828125 C-74.56213623 172.98062988 -75.46020996 172.07844727 -76.38549805 171.14892578 C-80.72986546 167.234544 -83.88670506 166.53224859 -89.59765625 166.69140625 C-94.44651956 167.22359856 -97.52885133 169.3601668 -100.65234375 172.9375 C-103.88378081 177.36918511 -104.28353143 180.52451034 -103.83984375 185.9375 C-100.87040798 193.56730025 -95.8761114 198.33896969 -90.02734375 203.9375 C-84.67974329 209.12400449 -79.44447651 214.28114979 -74.6027832 219.9453125 C-71.20146384 223.78893056 -67.49807625 227.34064724 -63.83984375 230.9375 C-58.90050549 235.79396346 -54.12833234 240.68771776 -49.61328125 245.94140625 C-46.35794254 249.60545488 -42.83532427 253.00455043 -39.33984375 256.4375 C-34.48709755 261.203435 -29.78899096 266.00720976 -25.38354492 271.19335938 C-21.9766932 275.04256841 -19.16906807 277.51605195 -14.01171875 278.44921875 C-6.25993035 278.88744799 -2.55638525 276.98902064 3.16015625 271.9375 C5.63929982 269.52697172 7.96981802 267.00478578 10.28515625 264.4375 C16.00229886 258.20101445 21.85809011 252.1574208 27.94384766 246.27929688 C29.38513528 244.86773084 30.77797917 243.40699489 32.16015625 241.9375 C32.16015625 241.2775 32.16015625 240.6175 32.16015625 239.9375 C32.82015625 239.9375 33.48015625 239.9375 34.16015625 239.9375 C35.69472992 238.42030017 35.69472992 238.42030017 37.28515625 236.4375 C41.6456394 231.30964403 46.39723476 226.64749196 51.19921875 221.9375 C55.12899771 218.05323971 58.82854494 214.06231345 62.43212891 209.875 C65.79013563 206.10993341 69.49406213 202.67412936 73.17382812 199.2265625 C78.20010601 194.34925224 81.67202028 189.41546877 82.66015625 182.375 C81.85378248 176.83118035 79.68195972 173.347952 75.59765625 169.5625 C72.34517137 167.39417674 69.68549919 166.75093958 65.84765625 166.625 C64.73970703 166.56892578 64.73970703 166.56892578 63.609375 166.51171875 C57.72629459 167.53445522 53.40104185 172.40723377 49.3515625 176.515625 C48.82175278 177.04589294 48.29194305 177.57616089 47.74607849 178.12249756 C46.63196649 179.23961344 45.52026835 180.35914145 44.41088867 181.48095703 C42.73597278 183.17403904 41.05328452 184.85907097 39.36914062 186.54296875 C38.27947725 187.63755248 37.19026989 188.73259041 36.1015625 189.828125 C35.36372276 190.56763397 35.36372276 190.56763397 34.61097717 191.32208252 C31.97793318 193.99007782 29.46787286 196.72201153 27.03160095 199.57122803 C22.9651643 204.2355079 18.62096181 208.58819013 14.22265625 212.9375 C13.44341797 213.71222656 12.66417969 214.48695313 11.86132812 215.28515625 C9.96323205 217.17160757 8.06282476 219.05566245 6.16015625 220.9375 C6.1577679 219.90197683 6.15537954 218.86645367 6.15291882 217.79955101 C6.09414352 192.61156174 6.01827287 167.42366827 5.92444134 142.23578453 C5.87946167 130.0551477 5.84005198 117.87454025 5.8137207 105.69384766 C5.79075825 95.07807228 5.75737979 84.46238971 5.71145469 73.84668791 C5.68749891 68.22493014 5.66878553 62.60326442 5.66254234 56.98145676 C5.6565022 51.69060948 5.6365409 46.3999978 5.60588074 41.10923767 C5.59708337 39.16703043 5.59338144 37.22479243 5.59514809 35.28256607 C5.59679871 32.63068055 5.58011967 29.97951506 5.55888367 27.32772827 C5.56373124 26.55923376 5.56857882 25.79073926 5.57357329 24.99895704 C5.51067679 20.23947386 4.67561832 16.98134146 2.16015625 12.9375 C-0.20080575 10.6485076 -0.20080575 10.6485076 -2.83984375 8.9375 C-3.43796875 8.525 -4.03609375 8.1125 -4.65234375 7.6875 C-11.59696484 5.30648705 -17.61847344 6.94648426 -22.83984375 11.9375 Z " fill="#0A0909" transform="translate(550.83984375,604.0625)"/>
<path d="M0 0 C4.6117722 4.24768492 6.3875427 8.22512809 8.375 14.1875 C8.375 30.0275 8.375 45.8675 8.375 62.1875 C85.595 62.1875 162.815 62.1875 242.375 62.1875 C242.375 46.0175 242.375 29.8475 242.375 13.1875 C249.12473147 -0.31196294 249.12473147 -0.31196294 256.76171875 -3.94921875 C263.06552765 -6.03164292 270.38486768 -5.58093762 276.4609375 -2.91796875 C282.8778481 0.78812451 287.08468513 5.0523783 289.375 12.1875 C289.65345772 14.90281074 289.79648103 17.38354863 289.77905273 20.09130859 C289.78934761 21.22695503 289.78934761 21.22695503 289.79985046 22.38554382 C289.81803644 24.86920337 289.81429239 27.35222615 289.80859375 29.8359375 C289.81315998 31.57557376 289.81846686 33.31520822 289.82447815 35.05484009 C289.83339352 38.69451237 289.8310047 42.33396505 289.82104492 45.97363281 C289.80956589 50.61938894 289.82975815 55.26438374 289.85896206 59.9100399 C289.87738119 63.50134025 289.87702012 67.09246015 289.87132454 70.68379593 C289.87117198 72.39567761 289.87716218 74.10757203 289.88961601 75.81940842 C290.01005049 95.08859979 290.01005049 95.08859979 283.71287537 102.01596069 C276.44842885 109.09129691 268.07192699 109.62850636 258.43276978 109.58190918 C257.2446763 109.58800028 256.05658282 109.59409139 254.83248651 109.60036707 C251.55190758 109.61409176 248.27164839 109.61446166 244.99105549 109.6089921 C241.44629309 109.60631412 237.90159389 109.62086803 234.3568573 109.63308716 C227.41895343 109.65411067 220.48113319 109.6586838 213.54320122 109.65689927 C207.90225827 109.65559015 202.26134134 109.65940345 196.62040329 109.66682434 C194.99373734 109.6689236 193.36707139 109.6710212 191.74040544 109.67311716 C190.52584146 109.67468245 190.52584146 109.67468245 189.28674082 109.67627937 C173.98336915 109.69516915 158.68004545 109.69413535 143.37666695 109.68731004 C129.38705937 109.68173491 115.39763494 109.70256094 101.40807016 109.73567051 C87.03173508 109.76943049 72.65548767 109.78457301 58.27911222 109.77995348 C50.21260441 109.7777112 42.1462659 109.78291664 34.07979202 109.80784607 C27.21261058 109.82888901 20.34569127 109.83242162 13.47849895 109.81354648 C9.97736824 109.80440706 6.47672588 109.80318953 2.97563362 109.82390213 C-0.82628985 109.84208371 -4.62691797 109.82935056 -8.42880249 109.80895996 C-9.52648307 109.82147781 -10.62416365 109.83399566 -11.75510728 109.84689283 C-19.78016081 109.75479257 -26.53498441 107.94126874 -32.5695461 102.4028182 C-37.79849777 96.84655805 -38.92638166 90.97233315 -38.8996582 83.47314453 C-38.90476913 82.72434021 -38.90988007 81.97553589 -38.91514587 81.20404053 C-38.9289808 78.74271524 -38.92808961 76.28167192 -38.92578125 73.8203125 C-38.92967179 72.09927264 -38.9340072 70.37823373 -38.93876648 68.65719604 C-38.94621577 65.0544727 -38.94594698 61.45184737 -38.94067383 57.84912109 C-38.9348837 53.24708733 -38.95180533 48.64545663 -38.9750185 44.04348946 C-38.98979771 40.48999715 -38.99062181 36.93660095 -38.98750877 33.38308334 C-38.98801997 31.6871244 -38.9932197 29.9911598 -39.00332069 28.29523087 C-39.01574823 25.91677416 -39.00885613 23.53909018 -38.99731445 21.16064453 C-39.00495819 20.4694754 -39.01260193 19.77830627 -39.02047729 19.06619263 C-38.95518326 12.93520963 -37.55109236 7.49881083 -33.57421875 2.7265625 C-23.09909342 -6.13839676 -11.70885408 -8.08468496 0 0 Z M-26.625 8.1875 C-29.99738557 13.23019924 -31.12835188 16.45815236 -31.15844727 22.64819336 C-31.16706284 23.35812943 -31.17567841 24.06806549 -31.18455505 24.79951477 C-31.20709494 27.12583804 -31.2004989 29.45094477 -31.19140625 31.77734375 C-31.19664739 33.40727594 -31.20292566 35.03720509 -31.21018982 36.66712952 C-31.22057202 40.07567666 -31.21606456 43.48380576 -31.20141602 46.89233398 C-31.18423554 51.2446883 -31.20772458 55.59572147 -31.24290562 59.94792843 C-31.26494384 63.31190111 -31.26342267 66.6755608 -31.2551403 70.03958321 C-31.25432421 71.6434429 -31.26112193 73.24732637 -31.27591133 74.85111809 C-31.53924995 85.86130876 -31.53924995 85.86130876 -27.18492126 95.73243713 C-21.57637562 100.96397457 -16.35606022 100.61477829 -9.02334595 100.57518005 C-7.83569905 100.58056559 -6.64805215 100.58595113 -5.42441595 100.59149987 C-2.13119377 100.60333355 1.16152255 100.60170705 4.45472479 100.59433305 C8.00765685 100.58960594 11.56053445 100.60210722 15.1134491 100.61235046 C22.07282196 100.62955329 29.0321046 100.63037535 35.99149321 100.62513756 C41.64826498 100.62109709 47.30501006 100.62253795 52.96178055 100.62788582 C53.76671216 100.62863424 54.57164377 100.62938266 55.40096725 100.63015376 C57.03616647 100.63168524 58.67136568 100.63322358 60.30656488 100.63476873 C75.64417237 100.64849935 90.98172885 100.64305233 106.31933518 100.63158352 C120.34993477 100.62165234 134.38040246 100.6345888 148.4109817 100.65851771 C162.81771563 100.682903 177.22438811 100.69251788 191.63114226 100.68586498 C199.71936797 100.68237126 207.80749225 100.68461482 215.89570236 100.70211601 C222.78168219 100.71683095 229.66748918 100.71748289 236.55346559 100.7000451 C240.06628803 100.69152643 243.57880163 100.68940626 247.09160805 100.70469666 C250.90102341 100.72107269 254.7099611 100.7064107 258.51937866 100.68870544 C259.62784413 100.69831045 260.73630959 100.70791546 261.87836492 100.71781152 C268.25833546 100.65669533 272.21379486 100.04447322 277.375 96.1875 C281.24341349 92.01457813 281.87597351 87.38040324 281.87670898 81.80273438 C281.88211197 81.10094559 281.88751495 80.3991568 281.89308167 79.67610168 C281.90549574 77.37737655 281.88912862 75.0799221 281.87109375 72.78125 C281.87124891 71.17134537 281.87274071 69.56144036 281.87550354 67.95153809 C281.87688425 64.58584984 281.86438505 61.22058943 281.84155273 57.85498047 C281.81316885 53.55436401 281.81590971 49.25445777 281.82864285 44.95378876 C281.83561865 41.63191733 281.82778913 38.31020824 281.81538582 34.98835754 C281.81088976 33.40323002 281.81051829 31.81808495 281.81445122 30.23295593 C281.81738227 28.01236625 281.80076814 25.79273388 281.77905273 23.57226562 C281.77094826 21.68199646 281.77094826 21.68199646 281.76268005 19.75354004 C281.1864249 14.45290898 279.81577595 10.52285332 275.8125 6.8125 C270.81209942 3.47889961 266.2851194 3.59481853 260.375 4.1875 C254.80481958 6.7736552 254.27525989 8.38698022 251.375 14.1875 C251.375 32.9975 251.375 51.8075 251.375 71.1875 C168.215 71.1875 85.055 71.1875 -0.625 71.1875 C-0.625 52.3775 -0.625 33.5675 -0.625 14.1875 C-4.55107493 7.59936407 -4.55107493 7.59936407 -10.625 4.1875 C-17.02927103 3.51510666 -21.69752528 3.61198776 -26.625 8.1875 Z " fill="#060505" transform="translate(414.625,862.8125)"/>
<path d="M0 0 C4.29 0 8.58 0 13 0 C13 45.87 13 91.74 13 139 C8.71 139 4.42 139 0 139 C0 134.38 0 129.76 0 125 C-9.24 125 -18.48 125 -28 125 C-28 120.38 -28 115.76 -28 111 C-32.62 111 -37.24 111 -42 111 C-42 83.28 -42 55.56 -42 27 C-37.38 27 -32.76 27 -28 27 C-28 22.38 -28 17.76 -28 13 C-18.76 13 -9.52 13 0 13 C0 8.71 0 4.42 0 0 Z " fill="#020202" transform="translate(366,359)"/>
<path d="M0 0 C4.6117722 4.24768492 6.3875427 8.22512809 8.375 14.1875 C8.375 30.0275 8.375 45.8675 8.375 62.1875 C85.595 62.1875 162.815 62.1875 242.375 62.1875 C242.375 46.0175 242.375 29.8475 242.375 13.1875 C249.12473147 -0.31196294 249.12473147 -0.31196294 256.76171875 -3.94921875 C263.14422766 -6.05764098 270.36120056 -5.51106712 276.515625 -2.87890625 C279.84621382 -0.9687156 282.62288807 1.52999192 285.375 4.1875 C284.715 4.8475 284.055 5.5075 283.375 6.1875 C281.70833333 6.1875 280.04166667 6.1875 278.375 6.1875 C277.715 6.8475 277.055 7.5075 276.375 8.1875 C275.776875 7.6925 275.17875 7.1975 274.5625 6.6875 C269.85984301 4.47448495 265.48878531 4.63299316 260.375 5.1875 C255.1275332 7.15530005 255.11153165 8.7144367 252.375 14.1875 C252.045 32.9975 251.715 51.8075 251.375 71.1875 C168.215 71.1875 85.055 71.1875 -0.625 71.1875 C-0.955 52.3775 -1.285 33.5675 -1.625 14.1875 C-5.23332742 8.19874226 -5.23332742 8.19874226 -10.625 5.1875 C-16.77338903 4.44598575 -21.23111844 4.95117106 -26.625 8.1875 C-27.285 8.1875 -27.945 8.1875 -28.625 8.1875 C-29.285 7.1975 -29.945 6.2075 -30.625 5.1875 C-32.605 6.1775 -32.605 6.1775 -34.625 7.1875 C-34.625 4.1875 -34.625 4.1875 -33.0859375 2.43359375 C-22.8907291 -6.40607196 -11.36681113 -7.84851245 0 0 Z M-28.625 3.1875 C-27.625 5.1875 -27.625 5.1875 -27.625 5.1875 Z " fill="#0D0C0C" transform="translate(414.625,862.8125)"/>
<path d="M0 0 C4.62 0 9.24 0 14 0 C14 18.48 14 36.96 14 56 C9.38 56 4.76 56 0 56 C0 69.53 0 83.06 0 97 C4.62 97 9.24 97 14 97 C14 120.1 14 143.2 14 167 C13.67 167 13.34 167 13 167 C13 153.14 13 139.28 13 125 C8.71 125 4.42 125 0 125 C0 134.24 0 143.48 0 153 C3.3 153 6.6 153 10 153 C10 153.66 10 154.32 10 155 C9.34 155 8.68 155 8 155 C8.22816406 155.91523438 8.45632813 156.83046875 8.69140625 157.7734375 C8.97886719 158.96195313 9.26632812 160.15046875 9.5625 161.375 C9.85253906 162.55835938 10.14257812 163.74171875 10.44140625 164.9609375 C11 168 11 168 10 170 C9.67 169.67 9.34 169.34 9 169 C8.67 169.66 8.34 170.32 8 171 C6.68 170.67 5.36 170.34 4 170 C4.33 169.01 4.66 168.02 5 167 C3.68 167 2.36 167 1 167 C-3.95 167 -8.9 167 -14 167 C-14 121.13 -14 75.26 -14 28 C-9.38 28 -4.76 28 0 28 C0 18.76 0 9.52 0 0 Z " fill="#CFCFCD" transform="translate(394,331)"/>
<path d="M0 0 C4.62 0 9.24 0 14 0 C14 27.72 14 55.44 14 84 C9.38 84 4.76 84 0 84 C0 79.38 0 74.76 0 70 C-4.62 70 -9.24 70 -14 70 C-14 51.52 -14 33.04 -14 14 C-9.38 14 -4.76 14 0 14 C0 9.38 0 4.76 0 0 Z " fill="#CECDCB" transform="translate(352,386)"/>
<path d="M0 0 C4.62 0 9.24 0 14 0 C14 4.62 14 9.24 14 14 C18.62 14 23.24 14 28 14 C28 32.48 28 50.96 28 70 C23.38 70 18.76 70 14 70 C14 74.62 14 79.24 14 84 C9.38 84 4.76 84 0 84 C0 56.28 0 28.56 0 0 Z " fill="#CECECD" transform="translate(714,372)"/>
<path d="M0 0 C36.63 0 73.26 0 111 0 C111 4.62 111 9.24 111 14 C74.37 14 37.74 14 0 14 C0 9.38 0 4.76 0 0 Z " fill="#000000" transform="translate(519,498)"/>
<path d="M0 0 C4.62 0 9.24 0 14 0 C14 8.91 14 17.82 14 27 C9.38 27 4.76 27 0 27 C0 31.62 0 36.24 0 41 C-4.62 41 -9.24 41 -14 41 C-14 45.62 -14 50.24 -14 55 C-18.62 55 -23.24 55 -28 55 C-28 59.62 -28 64.24 -28 69 C-32.29 69 -36.58 69 -41 69 C-41 60.09 -41 51.18 -41 42 C-36.71 42 -32.42 42 -28 42 C-28 37.38 -28 32.76 -28 28 C-23.38 28 -18.76 28 -14 28 C-14.020625 25.875625 -14.04125 23.75125 -14.0625 21.5625 C-14.08373783 19.37500389 -14.07258946 17.18639453 -14 15 C-11.53910088 12.53910088 -4.03154122 13.22337672 -1 13 C-0.505 6.565 -0.505 6.565 0 0 Z " fill="#F6F6EF" transform="translate(477,331)"/>
<path d="M0 0 C8.91 0 17.82 0 27 0 C27 4.29 27 8.58 27 13 C22.38 13 17.76 13 13 13 C13 22.24 13 31.48 13 41 C8.38 41 3.76 41 -1 41 C-1 45.62 -1 50.24 -1 55 C-5.29 55 -9.58 55 -14 55 C-14 59.62 -14 64.24 -14 69 C-18.62 69 -23.24 69 -28 69 C-28 60.09 -28 51.18 -28 42 C-23.38 42 -18.76 42 -14 42 C-14 37.05 -14 32.1 -14 27 C-9.38 27 -4.76 27 0 27 C0 18.09 0 9.18 0 0 Z " fill="#F6F6EF" transform="translate(631,401)"/>
<path d="M0 0 C4.62 0 9.24 0 14 0 C14 18.48 14 36.96 14 56 C4.76 56 -4.48 56 -14 56 C-14 42.14 -14 28.28 -14 14 C-9.38 14 -4.76 14 0 14 C0 9.38 0 4.76 0 0 Z " fill="#040404" transform="translate(575,386)"/>
<path d="M0 0 C4.62 0 9.24 0 14 0 C14 18.48 14 36.96 14 56 C4.76 56 -4.48 56 -14 56 C-14 42.14 -14 28.28 -14 14 C-9.38 14 -4.76 14 0 14 C0 9.38 0 4.76 0 0 Z " fill="#040404" transform="translate(491,386)"/>
<path d="M0 0 C9.24 0 18.48 0 28 0 C28 4.62 28 9.24 28 14 C18.76 14 9.52 14 0 14 C0 9.38 0 4.76 0 0 Z " fill="#F5F6EF" transform="translate(603,512)"/>
<path d="M0 0 C4.62 0 9.24 0 14 0 C14 9.24 14 18.48 14 28 C9.38 28 4.76 28 0 28 C0 18.76 0 9.52 0 0 Z " fill="#F5F6F0" transform="translate(728,387)"/>
<path d="M0 0 C4.62 0 9.24 0 14 0 C14 9.24 14 18.48 14 28 C9.38 28 4.76 28 0 28 C0 18.76 0 9.52 0 0 Z " fill="#F5F4EF" transform="translate(686,387)"/>
<path d="M0 0 C9.24 0 18.48 0 28 0 C28 4.62 28 9.24 28 14 C18.76 14 9.52 14 0 14 C0 9.38 0 4.76 0 0 Z " fill="#F5F4EE" transform="translate(519,247)"/>
<path d="M0 0 C4.62 0 9.24 0 14 0 C14 8.91 14 17.82 14 27 C9.38 27 4.76 27 0 27 C0 18.09 0 9.18 0 0 Z " fill="#F6F6EF" transform="translate(338,401)"/>
<path d="M0 0 C4.29 0 8.58 0 13 0 C13 9.24 13 18.48 13 28 C8.71 28 4.42 28 0 28 C0 18.76 0 9.52 0 0 Z " fill="#F6F6EF" transform="translate(394,456)"/>
<path d="M0 0 C4.29 0 8.58 0 13 0 C13 8.91 13 17.82 13 27 C8.71 27 4.42 27 0 27 C0 18.09 0 9.18 0 0 Z " fill="#010000" transform="translate(380,331)"/>
<path d="M0 0 C0.33 0 0.66 0 1 0 C1 4.29 1 8.58 1 13 C5.29 13 9.58 13 14 13 C14 13.33 14 13.66 14 14 C9.71 14 5.42 14 1 14 C1 23.24 1 32.48 1 42 C-3.62 42 -8.24 42 -13 42 C-13 87.87 -13 133.74 -13 181 C-13.33 181 -13.66 181 -14 181 C-14 135.13 -14 89.26 -14 42 C-18.29 42 -22.58 42 -27 42 C-27 41.67 -27 41.34 -27 41 C-22.71 41 -18.42 41 -14 41 C-14 32.09 -14 23.18 -14 14 C-13.67 14 -13.34 14 -13 14 C-13 22.91 -13 31.82 -13 41 C-8.71 41 -4.42 41 0 41 C0 27.47 0 13.94 0 0 Z " fill="#515150" transform="translate(393,317)"/>
<path d="M0 0 C4.62 0 9.24 0 14 0 C14 4.62 14 9.24 14 14 C9.38 14 4.76 14 0 14 C0 9.38 0 4.76 0 0 Z " fill="#C7C7C6" transform="translate(658,317)"/>
<path d="M0 0 C4.62 0 9.24 0 14 0 C14 23.1 14 46.2 14 70 C13.67 70 13.34 70 13 70 C13 56.14 13 42.28 13 28 C11.68 28 10.36 28 9 28 C9 20.08 9 12.16 9 4 C10.32 3.67 11.64 3.34 13 3 C13 2.34 13 1.68 13 1 C8.71 1 4.42 1 0 1 C0 0.67 0 0.34 0 0 Z " fill="#AFAFAE" transform="translate(394,428)"/>
<path d="M0 0 C5.875 4.625 5.875 4.625 7 8 C5.75 10.1875 5.75 10.1875 4 12 C3.01 12 2.02 12 1 12 C1 11.01 1 10.02 1 9 C0.01 9.33 -0.98 9.66 -2 10 C-1.625 8.0625 -1.625 8.0625 -1 6 C-0.34 5.67 0.32 5.34 1 5 C0.34 4.67 -0.32 4.34 -1 4 C-0.67 2.68 -0.34 1.36 0 0 Z " fill="#EFEFE9" transform="translate(506,867)"/>
<path d="M0 0 C1.175625 0.5259375 1.175625 0.5259375 2.375 1.0625 C3.674375 1.5265625 3.674375 1.5265625 5 2 C5.66 1.67 6.32 1.34 7 1 C8.10844919 4.32534757 7.84454356 6.62182575 7 10 C6.52949219 9.66226563 6.05898438 9.32453125 5.57421875 8.9765625 C4.95160156 8.53054688 4.32898438 8.08453125 3.6875 7.625 C3.07261719 7.18414063 2.45773437 6.74328125 1.82421875 6.2890625 C0.2347608 5.16589093 -1.38062171 4.07958553 -3 3 C-2.01 2.34 -1.02 1.68 0 1 C0 0.67 0 0.34 0 0 Z " fill="#EDECE9" transform="translate(552,601)"/>
<path d="M0 0 C3 1 3 1 4.0625 2.8125 C4.371875 3.534375 4.68125 4.25625 5 5 C5.37125 5.7425 5.7425 6.485 6.125 7.25 C6.41375 7.8275 6.7025 8.405 7 9 C4 9 4 9 2.39453125 7.46875 C1.87246094 6.8190625 1.35039062 6.169375 0.8125 5.5 C0.28269531 4.8503125 -0.24710937 4.200625 -0.79296875 3.53125 C-1.19128906 3.0259375 -1.58960938 2.520625 -2 2 C-1.34 1.34 -0.68 0.68 0 0 Z " fill="#DBDAD7" transform="translate(499,843)"/>
<path d="M0 0 C1.231394 2.46278801 1.07159196 4.2795055 1 7 C-1.97 7.66 -4.94 8.32 -8 9 C-2.25 2.25 -2.25 2.25 0 0 Z " fill="#E7E6E2" transform="translate(615,824)"/>
<path d="M0 0 C0.33 0 0.66 0 1 0 C1 4.62 1 9.24 1 14 C-0.32 14.33 -1.64 14.66 -3 15 C-2.67 14.34 -2.34 13.68 -2 13 C-1.96967814 10.75618252 -2.06643448 8.53088736 -2.16015625 6.2890625 C-1.98208151 3.74389667 -1.27356922 2.18754243 0 0 Z " fill="#D4D3CF" transform="translate(365,484)"/>
<path d="M0 0 C0.33 1.32 0.66 2.64 1 4 C-0.9375 6.25 -0.9375 6.25 -3 8 C-3.99 7.67 -4.98 7.34 -6 7 C-4.02 4.69 -2.04 2.38 0 0 Z " fill="#110F10" transform="translate(385,862)"/>
<path d="M0 0 C4.875 4.75 4.875 4.75 6 7 C4.68 7.33 3.36 7.66 2 8 C0.93224776 6.03533587 -0.06553465 4.03144641 -1 2 C-0.67 1.34 -0.34 0.68 0 0 Z " fill="#E5E4DF" transform="translate(442,800)"/>
<path d="M0 0 C2.97 0.33 5.94 0.66 9 1 C7 4 7 4 4.375 4.6875 C3.199375 4.8421875 3.199375 4.8421875 2 5 C2 4.34 2 3.68 2 3 C1.34 2.67 0.68 2.34 0 2 C0 1.34 0 0.68 0 0 Z " fill="#DCDBD5" transform="translate(533,890)"/>
<path d="M0 0 C0.66 0.99 1.32 1.98 2 3 C0.68 3.33 -0.64 3.66 -2 4 C-1.01 4.99 -0.02 5.98 1 7 C-0.65 7.33 -2.3 7.66 -4 8 C-4.25 5.6875 -4.25 5.6875 -4 3 C-2 1.1875 -2 1.1875 0 0 Z " fill="#E6E5DF" transform="translate(558,864)"/>
<path d="M0 0 C0.99 0.33 1.98 0.66 3 1 C4.1577506 4.47325181 4.06866652 7.36067448 4 11 C3.67 11 3.34 11 3 11 C2.9175 10.05125 2.835 9.1025 2.75 8.125 C2.34925077 4.89538209 2.34925077 4.89538209 -0.0625 3.625 C-0.701875 3.41875 -1.34125 3.2125 -2 3 C-1.34 2.01 -0.68 1.02 0 0 Z " fill="#D0D0CD" transform="translate(629,779)"/>
<path d="M0 0 C6.52307692 0.49230769 6.52307692 0.49230769 8.9375 3.0625 C9.288125 3.701875 9.63875 4.34125 10 5 C9.67 5.66 9.34 6.32 9 7 C7.6078125 6.0409375 7.6078125 6.0409375 6.1875 5.0625 C3.15780057 2.91377907 3.15780057 2.91377907 0 2 C0 1.34 0 0.68 0 0 Z " fill="#DEDDD8" transform="translate(624,762)"/>
<path d="M0 0 C2.4375 0.6875 2.4375 0.6875 5 2 C5.9375 4.5 5.9375 4.5 6 7 C5.34 7.66 4.68 8.32 4 9 C2.68 6.03 1.36 3.06 0 0 Z " fill="#E4E3E0" transform="translate(559,611)"/>
<path d="M0 0 C3.54971796 0.60852308 6.76693609 1.38346804 10 3 C10.33 3.99 10.66 4.98 11 6 C7.05594798 6 5.9482215 4.50598828 3 2 C2.01 1.34 1.02 0.68 0 0 Z " fill="#DDDCDA" transform="translate(549,604)"/>
<path d="M0 0 C3.01327566 1.50663783 3.61056618 4.03166411 5 7 C3.35 7 1.7 7 0 7 C0 4.69 0 2.38 0 0 Z " fill="#F4F5F0" transform="translate(617,295)"/>
<path d="M0 0 C-0.33 1.65 -0.66 3.3 -1 5 C-1.61875 5.12375 -2.2375 5.2475 -2.875 5.375 C-5.19120832 5.87197356 -5.19120832 5.87197356 -7 8 C-7 5 -7 5 -4.625 2.3125 C-2 0 -2 0 0 0 Z " fill="#E3E4E0" transform="translate(574,810)"/>
<path d="M0 0 C0.33 0.99 0.66 1.98 1 3 C0.00664799 4.67063747 -0.99431758 6.33675599 -2 8 C-2.71401232 11.19395026 -2.71401232 11.19395026 -3 14 C-3.33 14 -3.66 14 -4 14 C-4.49940808 7.88225104 -3.24900602 4.97504047 0 0 Z " fill="#BFBEBB" transform="translate(451,776)"/>
<path d="M0 0 C2.0625 0.4375 2.0625 0.4375 4 1 C4 1.66 4 2.32 4 3 C4.66 3 5.32 3 6 3 C6 3.66 6 4.32 6 5 C5.01 5.33 4.02 5.66 3 6 C1.68 4.35 0.36 2.7 -1 1 C-0.67 0.67 -0.34 0.34 0 0 Z " fill="#DCDBD8" transform="translate(526,873)"/>
<path d="M0 0 C1.98 1.65 3.96 3.3 6 5 C4.1875 5.625 4.1875 5.625 2 6 C1.01 5.34 0.02 4.68 -1 4 C-0.67 2.68 -0.34 1.36 0 0 Z " fill="#D1D0CD" transform="translate(506,867)"/>
<path d="M0 0 C4 4.75 4 4.75 4 7 C0.63279613 5.60667426 -0.9859524 4.0210714 -3 1 C-2.01 0.67 -1.02 0.34 0 0 Z " fill="#E9E9E6" transform="translate(486,829)"/>
<path d="M0 0 C1.485 0.99 1.485 0.99 3 2 C3.1875 5.125 3.1875 5.125 3 8 C2.01 8.33 1.02 8.66 0 9 C0.33 8.01 0.66 7.02 1 6 C0.34 5.67 -0.32 5.34 -1 5 C-0.67 3.35 -0.34 1.7 0 0 Z " fill="#F7F6F2" transform="translate(516,236)"/>
<path d="M0 0 C2.475 0.495 2.475 0.495 5 1 C5.33 1.99 5.66 2.98 6 4 C4.125 4.625 4.125 4.625 2 5 C1.34 4.34 0.68 3.68 0 3 C0 2.01 0 1.02 0 0 Z " fill="#DFE0DC" transform="translate(472,817)"/>
<path d="M0 0 C0 3 0 3 -2.3125 5.6875 C-5 8 -5 8 -8 8 C-5.36 5.36 -2.72 2.72 0 0 Z " fill="#E2E1DD" transform="translate(598,783)"/>
<path d="M0 0 C2.79872437 2.52788007 4.45773019 4.20411134 5 8 C4.01 8.495 4.01 8.495 3 9 C0 3.375 0 3.375 0 0 Z " fill="#DFDEDA" transform="translate(418,865)"/>
<path d="M0 0 C-1.98 1.32 -3.96 2.64 -6 4 C-6.66 3.01 -7.32 2.02 -8 1 C-4.93251126 -0.86240388 -3.40254489 -1.2151946 0 0 Z " fill="#E3E2DD" transform="translate(528,606)"/>
<path d="M0 0 C0.33 0.66 0.66 1.32 1 2 C-1.3125 4.5 -1.3125 4.5 -4 7 C-4.99 7 -5.98 7 -7 7 C-4.69 4.69 -2.38 2.38 0 0 Z " fill="#252424" transform="translate(595,832)"/>
<path d="M0 0 C0.33 0.66 0.66 1.32 1 2 C1.66 2.33 2.32 2.66 3 3 C1.68 3.99 0.36 4.98 -1 6 C-1.66 5.01 -2.32 4.02 -3 3 C-2.01 2.01 -1.02 1.02 0 0 Z " fill="#DEDDDA" transform="translate(604,818)"/>
</svg>
