<?xml version="1.0" encoding="UTF-8"?>
<svg version="1.1" xmlns="http://www.w3.org/2000/svg" width="1080" height="1080">
<path d="M0 0 C356.4 0 712.8 0 1080 0 C1080 356.4 1080 712.8 1080 1080 C723.6 1080 367.2 1080 0 1080 C0 723.6 0 367.2 0 0 Z " fill="#F1F0EB" transform="translate(0,0)"/>
<path d="M0 0 C13.86 0 27.72 0 42 0 C42 13.86 42 27.72 42 42 C37.38 42 32.76 42 28 42 C28 46.62 28 51.24 28 56 C51.1 56 74.2 56 98 56 C98 60.62 98 65.24 98 70 C120.77 70 143.54 70 167 70 C167 74.62 167 79.24 167 84 C171.62 84 176.24 84 181 84 C181 88.62 181 93.24 181 98 C185.62 98 190.24 98 195 98 C195 107.24 195 116.48 195 126 C204.24 126 213.48 126 223 126 C223 130.62 223 135.24 223 140 C227.62 140 232.24 140 237 140 C237 167.39 237 194.78 237 223 C232.38 223 227.76 223 223 223 C223 227.62 223 232.24 223 237 C218.38 237 213.76 237 209 237 C209 241.62 209 246.24 209 251 C204.38 251 199.76 251 195 251 C195 260.24 195 269.48 195 279 C190.38 279 185.76 279 181 279 C181 283.62 181 288.24 181 293 C176.38 293 171.76 293 167 293 C167 297.62 167 302.24 167 307 C70.64 307 -25.72 307 -125 307 C-125 302.38 -125 297.76 -125 293 C-129.62 293 -134.24 293 -139 293 C-139 283.76 -139 274.52 -139 265 C-143.62 265 -148.24 265 -153 265 C-153 260.38 -153 255.76 -153 251 C-162.24 251 -171.48 251 -181 251 C-181 246.38 -181 241.76 -181 237 C-185.62 237 -190.24 237 -195 237 C-195 209.28 -195 181.56 -195 153 C-190.38 153 -185.76 153 -181 153 C-181 148.38 -181 143.76 -181 139 C-171.76 139 -162.52 139 -153 139 C-153 134.38 -153 129.76 -153 125 C-148.71 125 -144.42 125 -140 125 C-140 116.09 -140 107.18 -140 98 C-135.38 98 -130.76 98 -126 98 C-126 93.38 -126 88.76 -126 84 C-121.05 84 -116.1 84 -111 84 C-111 79.38 -111 74.76 -111 70 C-69.75 70 -28.5 70 14 70 C14 65.38 14 60.76 14 56 C9.38 56 4.76 56 0 56 C0 51.38 0 46.76 0 42 C-4.62 42 -9.24 42 -14 42 C-14 32.76 -14 23.52 -14 14 C-9.38 14 -4.76 14 0 14 C0 9.38 0 4.76 0 0 Z " fill="#030303" transform="translate(519,233)"/>
<path d="M0 0 C18.48 0 36.96 0 56 0 C56 4.62 56 9.24 56 14 C69.86 14 83.72 14 98 14 C98 23.24 98 32.48 98 42 C102.29 42 106.58 42 111 42 C111 78.63 111 115.26 111 153 C106.71 153 102.42 153 98 153 C98 162.24 98 171.48 98 181 C93.05 181 88.1 181 83 181 C83 185.62 83 190.24 83 195 C46.37 195 9.74 195 -28 195 C-28 190.38 -28 185.76 -28 181 C-46.48 181 -64.96 181 -84 181 C-84 185.62 -84 190.24 -84 195 C-93.24 195 -102.48 195 -112 195 C-112 190.38 -112 185.76 -112 181 C-116.29 181 -120.58 181 -125 181 C-125 157.9 -125 134.8 -125 111 C-129.62 111 -134.24 111 -139 111 C-139 106.71 -139 102.42 -139 98 C-132.565 97.505 -132.565 97.505 -126 97 C-125.67 74.23 -125.34 51.46 -125 28 C-120.71 28 -116.42 28 -112 28 C-112 23.38 -112 18.76 -112 14 C-75.04 14 -38.08 14 0 14 C0 9.38 0 4.76 0 0 Z " fill="#D1D1CF" transform="translate(547,303)"/>
<path d="M0 0 C4.62 0 9.24 0 14 0 C14 18.48 14 36.96 14 56 C9.38 56 4.76 56 0 56 C0 69.53 0 83.06 0 97 C4.62 97 9.24 97 14 97 C14 120.1 14 143.2 14 167 C18.62 167 23.24 167 28 167 C28 171.62 28 176.24 28 181 C46.15 181 64.3 181 83 181 C83 176.38 83 171.76 83 167 C96.86 167 110.72 167 125 167 C125 171.62 125 176.24 125 181 C161.96 181 198.92 181 237 181 C237 176.38 237 171.76 237 167 C245.91 167 254.82 167 264 167 C264 157.76 264 148.52 264 139 C268.62 139 273.24 139 278 139 C278 93.13 278 47.26 278 0 C282.62 0 287.24 0 292 0 C292 4.62 292 9.24 292 14 C296.62 14 301.24 14 306 14 C306 64.49 306 114.98 306 167 C301.38 167 296.76 167 292 167 C292 171.62 292 176.24 292 181 C287.38 181 282.76 181 278 181 C278 185.62 278 190.24 278 195 C190.88 195 103.76 195 14 195 C14 190.38 14 185.76 14 181 C9.38 181 4.76 181 0 181 C0 176.38 0 171.76 0 167 C-4.62 167 -9.24 167 -14 167 C-14 121.13 -14 75.26 -14 28 C-9.38 28 -4.76 28 0 28 C0 18.76 0 9.52 0 0 Z " fill="#D0D0CE" transform="translate(394,331)"/>
<path d="M0 0 C4.29 0 8.58 0 13 0 C13 45.87 13 91.74 13 139 C8.71 139 4.42 139 0 139 C0 134.38 0 129.76 0 125 C-9.24 125 -18.48 125 -28 125 C-28 120.38 -28 115.76 -28 111 C-32.62 111 -37.24 111 -42 111 C-42 83.28 -42 55.56 -42 27 C-37.38 27 -32.76 27 -28 27 C-28 22.38 -28 17.76 -28 13 C-18.76 13 -9.52 13 0 13 C0 8.71 0 4.42 0 0 Z " fill="#020202" transform="translate(366,359)"/>
<path d="M0 0 C1.87739868 0.07069702 1.87739868 0.07069702 3.79272461 0.14282227 C4.45719101 0.16643326 5.12165741 0.19004425 5.80625916 0.21437073 C7.93607115 0.29116537 10.06553382 0.37512065 12.19506836 0.45922852 C13.63580627 0.51243345 15.07656141 0.56517394 16.51733398 0.61743164 C20.05596149 0.74680138 23.59430977 0.88259592 27.13256836 1.02172852 C26.80256836 2.01172852 26.47256836 3.00172852 26.13256836 4.02172852 C26.04152704 5.4635114 26.0046744 6.90910612 26.00317383 8.35375977 C25.99844559 9.66026489 25.99844559 9.66026489 25.99362183 10.99316406 C25.99564606 11.93071533 25.99767029 12.8682666 25.99975586 13.83422852 C25.99832077 15.28212769 25.99832077 15.28212769 25.99685669 16.75927734 C25.99617616 18.80021225 25.99802161 20.84114933 26.00219727 22.88208008 C26.00754728 26.00940809 26.00224797 29.13659248 25.99584961 32.26391602 C25.99651041 34.24568717 25.99779162 36.22745823 25.99975586 38.20922852 C25.99671951 39.61555542 25.99671951 39.61555542 25.99362183 41.05029297 C25.99677399 41.92129639 25.99992615 42.7922998 26.00317383 43.68969727 C26.00396942 44.45564209 26.00476501 45.22158691 26.00558472 46.01074219 C26.05958314 48.22912905 26.05958314 48.22912905 27.13256836 51.02172852 C32.94039471 49.75705746 32.94039471 49.75705746 38.13256836 47.02172852 C36.85742134 52.5048607 34.73261812 54.83707868 30.13256836 58.02172852 C25.6291057 60.07765712 21.03542743 60.91399368 16.13256836 60.02172852 C10.86903749 57.75481042 5.91086952 54.11528064 3.13256836 49.02172852 C1.89264184 45.40194302 0.9502656 41.75787362 0.13256836 38.02172852 C-1.18743164 39.67172852 -2.50743164 41.32172852 -3.86743164 43.02172852 C-4.52743164 42.69172852 -5.18743164 42.36172852 -5.86743164 42.02172852 C-6.19743164 47.96172852 -6.52743164 53.90172852 -6.86743164 60.02172852 C-28.64743164 60.02172852 -50.42743164 60.02172852 -72.86743164 60.02172852 C-70.94891463 56.18469449 -68.7516849 52.69713317 -66.36743164 49.14672852 C-65.9252832 48.48616455 -65.48313477 47.82560059 -65.02758789 47.14501953 C-60.03414149 39.72469453 -54.81237668 32.47254765 -49.5690918 25.2277832 C-44.08108689 17.63846898 -38.78499773 10.0005609 -33.86743164 2.02172852 C-49.86576929 2.57149957 -57.7376676 7.89196448 -68.86743164 19.02172852 C-68.37243164 10.11172852 -68.37243164 10.11172852 -67.86743164 1.02172852 C-65.93391846 1.02696533 -64.00040527 1.03220215 -62.00830078 1.03759766 C-55.63405462 1.05369506 -49.25981326 1.06520069 -42.88555241 1.07354069 C-39.01923047 1.07876877 -35.15293043 1.08586505 -31.28662109 1.09716797 C-27.55839763 1.10799951 -23.8301953 1.11400592 -20.10195732 1.11660576 C-18.67653508 1.11845953 -17.25111405 1.12207922 -15.82570076 1.12745857 C-13.83579756 1.13467244 -11.8458733 1.1351366 -9.85595703 1.13525391 C-8.15385826 1.13858482 -8.15385826 1.13858482 -6.41737366 1.14198303 C-3.26410194 0.99327566 -3.27447089 0.02481293 0 0 Z " fill="#EEEEE9" transform="translate(684.867431640625,618.978271484375)"/>
<path d="M0 0 C4.62 0 9.24 0 14 0 C14 18.48 14 36.96 14 56 C9.38 56 4.76 56 0 56 C0 69.53 0 83.06 0 97 C4.62 97 9.24 97 14 97 C14 120.1 14 143.2 14 167 C13.67 167 13.34 167 13 167 C13 153.14 13 139.28 13 125 C8.71 125 4.42 125 0 125 C0 134.24 0 143.48 0 153 C3.3 153 6.6 153 10 153 C10 153.66 10 154.32 10 155 C9.34 155 8.68 155 8 155 C8.22816406 155.91523438 8.45632813 156.83046875 8.69140625 157.7734375 C8.97886719 158.96195313 9.26632812 160.15046875 9.5625 161.375 C9.85253906 162.55835938 10.14257812 163.74171875 10.44140625 164.9609375 C11 168 11 168 10 170 C9.67 169.67 9.34 169.34 9 169 C8.67 169.66 8.34 170.32 8 171 C6.68 170.67 5.36 170.34 4 170 C4.33 169.01 4.66 168.02 5 167 C3.68 167 2.36 167 1 167 C-3.95 167 -8.9 167 -14 167 C-14 121.13 -14 75.26 -14 28 C-9.38 28 -4.76 28 0 28 C0 18.76 0 9.52 0 0 Z " fill="#CFCFCD" transform="translate(394,331)"/>
<path d="M0 0 C5.39798718 4.15497242 8.95862242 8.49310898 11 15 C11 15.99 11 16.98 11 18 C-1.54 18 -14.08 18 -27 18 C-25.6363774 25.41600621 -25.6363774 25.41600621 -22.5625 31.375 C-22.15128906 32.00148438 -21.74007813 32.62796875 -21.31640625 33.2734375 C-18.58582794 36.85478946 -16.37002189 38.64226199 -12 40 C-3.39917551 41.05839162 2.94741682 40.10264416 10 35 C7.07443313 44.04266124 1.29478384 47.28153828 -6.74609375 51.58203125 C-14.7466998 55.06848983 -23.66724857 55.07671694 -31.80078125 52.0390625 C-39.34491653 48.47469308 -44.98130815 43.01809569 -48.1015625 35.26171875 C-50.37423251 27.01093851 -50.42935878 17.67121757 -46.5625 9.9375 C-41.75521737 2.45074837 -35.32540093 -2.42911322 -26.66015625 -4.55859375 C-16.79859698 -6.19494646 -8.7099668 -5.08593266 0 0 Z " fill="#595857" transform="translate(454,625)"/>
<path d="M0 0 C7.66031652 4.41300843 13.45064284 10.76987117 15.9921875 19.37890625 C17.83476929 28.15541427 15.92754762 35.96455612 11.6875 43.6875 C7.08260421 49.44361974 1.35714461 54.74540789 -6.16015625 55.8984375 C-8.62757372 56.15524326 -11.08606038 56.35806967 -13.5625 56.5 C-12.3559375 55.571875 -12.3559375 55.571875 -11.125 54.625 C-8.52375481 52.75835959 -8.52375481 52.75835959 -7.5625 50.5 C-7.45275641 49.01019518 -7.40346461 47.51570599 -7.38549805 46.02197266 C-7.37266281 45.09405914 -7.35982758 44.16614563 -7.34660339 43.21011353 C-7.33921646 42.20491669 -7.33182953 41.19971985 -7.32421875 40.1640625 C-7.316147 39.13316498 -7.30807526 38.10226746 -7.29975891 37.04013062 C-7.28591355 34.85619797 -7.27519343 32.67224364 -7.26733398 30.48828125 C-7.25010523 27.14541783 -7.20622068 23.80353915 -7.16210938 20.4609375 C-7.15198407 18.34115312 -7.14346746 16.22136032 -7.13671875 14.1015625 C-7.11921066 13.10041412 -7.10170258 12.09926575 -7.08366394 11.06777954 C-7.02461708 5.60525292 -7.02461708 5.60525292 -9.44165039 0.86181641 C-11.96653407 -0.75943387 -13.33959729 -0.92487663 -16.3125 -0.75 C-17.11171875 -0.71390625 -17.9109375 -0.6778125 -18.734375 -0.640625 C-19.63929688 -0.57101562 -19.63929688 -0.57101562 -20.5625 -0.5 C-21.5280284 2.39658521 -21.6995541 4.2767022 -21.72363281 7.29101562 C-21.73324036 8.2621228 -21.7428479 9.23322998 -21.75274658 10.23376465 C-21.7591214 11.8041449 -21.7591214 11.8041449 -21.765625 13.40625 C-21.77417511 15.02061951 -21.77417511 15.02061951 -21.78289795 16.66760254 C-21.79234581 18.94391903 -21.79888108 21.22024919 -21.80273438 23.49658203 C-21.81246165 26.98624302 -21.84349633 30.47532047 -21.875 33.96484375 C-21.88152789 36.17447566 -21.8867792 38.38411179 -21.890625 40.59375 C-21.9029718 41.64067017 -21.9153186 42.68759033 -21.92803955 43.76623535 C-21.92503845 44.73734253 -21.92203735 45.70844971 -21.91894531 46.70898438 C-21.92259094 47.56375366 -21.92623657 48.41852295 -21.92999268 49.29919434 C-21.47568091 52.01993402 -20.69403605 52.80324011 -18.5625 54.5 C-17.5725 55.16 -16.5825 55.82 -15.5625 56.5 C-22.44706284 56.21784579 -27.68709766 55.15727292 -33.5625 51.5 C-34.42875 50.96375 -35.295 50.4275 -36.1875 49.875 C-42.812822 43.249678 -45.67229621 36.07553144 -45.9375 26.875 C-45.85410047 17.95125056 -43.17745937 11.98521443 -37.0625 5.5625 C-27.01885304 -3.67852291 -12.38449804 -5.74715672 0 0 Z " fill="#565554" transform="translate(590.5625,622.5)"/>
<path d="M0 0 C4.62 0 9.24 0 14 0 C14 27.72 14 55.44 14 84 C9.38 84 4.76 84 0 84 C0 79.38 0 74.76 0 70 C-4.62 70 -9.24 70 -14 70 C-14 51.52 -14 33.04 -14 14 C-9.38 14 -4.76 14 0 14 C0 9.38 0 4.76 0 0 Z " fill="#CECDCB" transform="translate(352,386)"/>
<path d="M0 0 C4.62 0 9.24 0 14 0 C14 4.62 14 9.24 14 14 C18.62 14 23.24 14 28 14 C28 32.48 28 50.96 28 70 C23.38 70 18.76 70 14 70 C14 74.62 14 79.24 14 84 C9.38 84 4.76 84 0 84 C0 56.28 0 28.56 0 0 Z " fill="#CECECD" transform="translate(714,372)"/>
<path d="M0 0 C20.79 0 41.58 0 63 0 C60.75238582 5.61903545 60.75238582 5.61903545 58.6796875 8.34765625 C58.23101318 8.94650635 57.78233887 9.54535645 57.32006836 10.16235352 C56.8431958 10.78940186 56.36632324 11.4164502 55.875 12.0625 C51.74317615 17.58978254 47.81724221 23.19666352 44.03125 28.96875 C41.73942635 32.38885606 39.34855356 35.72603267 36.9375 39.0625 C29.92864952 48.69559957 29.92864952 48.69559957 24 59 C14.43 59 4.86 59 -5 59 C-3.08148299 55.16296597 -0.88425326 51.67540465 1.5 48.125 C1.94214844 47.46443604 2.38429688 46.80387207 2.83984375 46.12329102 C7.83329015 38.70296601 13.05505496 31.45081913 18.29833984 24.20605469 C23.78634476 16.61674046 29.08243392 8.97883239 34 1 C18.00166235 1.54977105 10.12976404 6.87023596 -1 18 C-0.505 9.09 -0.505 9.09 0 0 Z " fill="#565554" transform="translate(617,620)"/>
<path d="M0 0 C4.32322461 -0.12400035 8.64549602 -0.21452256 12.9699707 -0.2746582 C14.43955525 -0.29973644 15.90901587 -0.33380856 17.37817383 -0.37719727 C19.49591681 -0.43815499 21.61200576 -0.46627316 23.73046875 -0.48828125 C25.00301514 -0.51446533 26.27556152 -0.54064941 27.58666992 -0.56762695 C33.02305652 0.33642847 35.05280559 3.82847007 38.375 7.9375 C40.74500172 10.84410589 43.42537383 13.1673667 46.30078125 15.5625 C49.46524175 18.23956084 52.29827362 21.08049647 54.8125 24.375 C57.21484132 27.25780959 59.83605136 29.55760176 62.70703125 31.9609375 C63.84205078 32.97027344 63.84205078 32.97027344 65 34 C65.59611084 34.39292236 66.19222168 34.78584473 66.80639648 35.19067383 C70.48222062 38.00723858 71.84747214 40.00614728 72.5612793 44.65722656 C72.77616465 49.0901218 72.61124007 53.50595753 72.4375 57.9375 C72.40234783 59.49537274 72.37041566 61.05332167 72.34179688 62.61132812 C72.26505599 66.40944735 72.1445022 70.20387948 72 74 C66.55694706 69.45934794 61.49739646 64.64921611 56.5 59.625 C55.77941406 58.90828125 55.05882812 58.1915625 54.31640625 57.453125 C50.92674452 54.05733369 47.63064724 50.62910512 44.5 46.9921875 C40.71726161 42.60313018 36.63196324 38.55804618 32.5 34.5 C28.37544008 30.4492247 24.29748216 26.41363484 20.52734375 22.02734375 C16.60533769 17.46757661 12.34974022 13.27626566 8.0625 9.0625 C6.53031272 7.55565907 5.00023481 6.04666913 3.47265625 4.53515625 C2.80500244 3.879104 2.13734863 3.22305176 1.44946289 2.54711914 C0 1 0 1 0 0 Z " fill="#555454" transform="translate(328,604)"/>
<path d="M0 0 C7.92 0 15.84 0 24 0 C24.33 24.09 24.66 48.18 25 73 C16.42 73 7.84 73 -1 73 C-0.67 71.68 -0.34 70.36 0 69 C0.08770545 66.73868847 0.11765497 64.47492202 0.11352539 62.21191406 C0.11367142 61.53833359 0.11381744 60.86475311 0.1139679 60.17076111 C0.11327324 57.95234924 0.10550181 55.73402214 0.09765625 53.515625 C0.09579048 51.97434536 0.09436733 50.43306512 0.09336853 48.89178467 C0.08955585 44.84102737 0.07973624 40.79030609 0.06866455 36.73956299 C0.05842356 32.60372403 0.05386515 28.46787924 0.04882812 24.33203125 C0.03811284 16.22133582 0.02052616 8.11067654 0 0 Z " fill="#545453" transform="translate(471,606)"/>
<path d="M0 0 C36.63 0 73.26 0 111 0 C111 4.62 111 9.24 111 14 C74.37 14 37.74 14 0 14 C0 9.38 0 4.76 0 0 Z " fill="#000000" transform="translate(519,498)"/>
<path d="M0 0 C4.62 0 9.24 0 14 0 C14 8.91 14 17.82 14 27 C9.38 27 4.76 27 0 27 C0 31.62 0 36.24 0 41 C-4.62 41 -9.24 41 -14 41 C-14 45.62 -14 50.24 -14 55 C-18.62 55 -23.24 55 -28 55 C-28 59.62 -28 64.24 -28 69 C-32.29 69 -36.58 69 -41 69 C-41 60.09 -41 51.18 -41 42 C-36.71 42 -32.42 42 -28 42 C-28 37.38 -28 32.76 -28 28 C-23.38 28 -18.76 28 -14 28 C-14.020625 25.875625 -14.04125 23.75125 -14.0625 21.5625 C-14.08373783 19.37500389 -14.07258946 17.18639453 -14 15 C-11.53910088 12.53910088 -4.03154122 13.22337672 -1 13 C-0.505 6.565 -0.505 6.565 0 0 Z " fill="#F6F6EF" transform="translate(477,331)"/>
<path d="M0 0 C8.91 0 17.82 0 27 0 C27 4.29 27 8.58 27 13 C22.38 13 17.76 13 13 13 C13 22.24 13 31.48 13 41 C8.38 41 3.76 41 -1 41 C-1 45.62 -1 50.24 -1 55 C-5.29 55 -9.58 55 -14 55 C-14 59.62 -14 64.24 -14 69 C-18.62 69 -23.24 69 -28 69 C-28 60.09 -28 51.18 -28 42 C-23.38 42 -18.76 42 -14 42 C-14 37.05 -14 32.1 -14 27 C-9.38 27 -4.76 27 0 27 C0 18.09 0 9.18 0 0 Z " fill="#F6F6EF" transform="translate(631,401)"/>
<path d="M0 0 C4.62 0 9.24 0 14 0 C14 18.48 14 36.96 14 56 C4.76 56 -4.48 56 -14 56 C-14 42.14 -14 28.28 -14 14 C-9.38 14 -4.76 14 0 14 C0 9.38 0 4.76 0 0 Z " fill="#040404" transform="translate(575,386)"/>
<path d="M0 0 C4.62 0 9.24 0 14 0 C14 18.48 14 36.96 14 56 C4.76 56 -4.48 56 -14 56 C-14 42.14 -14 28.28 -14 14 C-9.38 14 -4.76 14 0 14 C0 9.38 0 4.76 0 0 Z " fill="#040404" transform="translate(491,386)"/>
<path d="M0 0 C8.91 0 17.82 0 27 0 C26.67 0.99 26.34 1.98 26 3 C25.90895868 4.44178289 25.87210604 5.8873776 25.87060547 7.33203125 C25.86745331 8.20303467 25.86430115 9.07403809 25.86105347 9.97143555 C25.8630777 10.90898682 25.86510193 11.84653809 25.8671875 12.8125 C25.86623077 13.77776611 25.86527405 14.74303223 25.86428833 15.73754883 C25.8636078 17.77848374 25.86545325 19.81942081 25.86962891 21.86035156 C25.87497892 24.98767957 25.86967961 28.11486396 25.86328125 31.2421875 C25.86394205 33.22395865 25.86522326 35.20572971 25.8671875 37.1875 C25.86516327 38.12505127 25.86313904 39.06260254 25.86105347 40.02856445 C25.86420563 40.89956787 25.86735779 41.77057129 25.87060547 42.66796875 C25.87140106 43.43391357 25.87219666 44.1998584 25.87301636 44.98901367 C25.92701478 47.20740053 25.92701478 47.20740053 27 50 C32.80782636 48.73532894 32.80782636 48.73532894 38 46 C36.72485298 51.48313219 34.60004976 53.81535017 30 57 C25.49653734 59.0559286 20.90285907 59.89226516 16 59 C10.38108491 56.58002363 6.52683831 52.91619886 3 48 C2.09862584 45.29587752 1.85832574 43.63717779 1.81054688 40.8515625 C1.79382935 40.02060059 1.77711182 39.18963867 1.7598877 38.33349609 C1.74631226 37.43969238 1.73273682 36.54588867 1.71875 35.625 C1.70034058 34.70412598 1.68193115 33.78325195 1.66296387 32.83447266 C1.58428921 28.89171963 1.51655595 24.94879502 1.44775391 21.00585938 C1.3960052 18.12882107 1.33876339 15.25192789 1.28125 12.375 C1.26767456 11.48119629 1.25409912 10.58739258 1.2401123 9.66650391 C1.22339478 8.83554199 1.20667725 8.00458008 1.18945312 7.1484375 C1.17692505 6.41802246 1.16439697 5.68760742 1.15148926 4.93505859 C1.06116377 2.7814572 1.06116377 2.7814572 0 0 Z " fill="#555453" transform="translate(685,620)"/>
<path d="M0 0 C8.25 0 16.5 0 25 0 C24.97679687 3.79113281 24.95359375 7.58226562 24.9296875 11.48828125 C24.91409898 15.15193344 24.90194966 18.81558197 24.89013672 22.47924805 C24.88006672 25.02939502 24.86640996 27.57953042 24.84912109 30.12963867 C24.82491688 33.7908819 24.81352695 37.45197274 24.8046875 41.11328125 C24.79436493 42.2571077 24.78404236 43.40093414 24.77340698 44.579422 C24.77325592 45.64029526 24.77310486 46.70116852 24.77294922 47.79418945 C24.76628738 49.19650566 24.76628738 49.19650566 24.75949097 50.62715149 C24.84010466 53.26712111 24.84010466 53.26712111 27 56 C22.41384485 58.75169309 18.30177017 60.07026389 13 59 C8.50275423 56.97261908 4.47680819 54.37083798 2 50 C1.0534586 47.16037579 0.85005776 45.29593471 0.79467773 42.3449707 C0.77473251 41.40422195 0.75478729 40.46347321 0.73423767 39.49421692 C0.71752518 38.48163315 0.70081268 37.46904938 0.68359375 36.42578125 C0.6524221 34.86732735 0.6524221 34.86732735 0.62062073 33.27738953 C0.55519344 29.95582747 0.49627179 26.63418584 0.4375 23.3125 C0.39430831 21.0618407 0.35069381 18.81118948 0.30664062 16.56054688 C0.19872273 11.04044499 0.0995982 5.5202834 0 0 Z " fill="#545454" transform="translate(723,620)"/>
<path d="M0 0 C1.7654069 2.64811034 3.44995419 5.33363189 5.12329102 8.0402832 C9.96365808 15.86020916 14.9756309 23.54459594 20.15185547 31.14672852 C20.88299561 32.22845337 20.88299561 32.22845337 21.62890625 33.33203125 C22.06275635 33.96858643 22.49660645 34.6051416 22.94360352 35.26098633 C24 37 24 37 25 40 C15.81072247 41.30415511 6.03203919 42.63359059 -3 40 C-9.82372687 34.79150974 -13.62906453 26.72848621 -17 19 C-16.05339401 17.88430331 -15.10515951 16.76998819 -14.15625 15.65625 C-13.62837891 15.03556641 -13.10050781 14.41488281 -12.55664062 13.77539062 C-10.4796858 11.40656762 -8.22728483 9.22728483 -6 7 C-3.96575571 4.6951674 -1.97531204 2.35544082 0 0 Z " fill="#545453" transform="translate(514,639)"/>
<path d="M0 0 C9.24 0 18.48 0 28 0 C28 4.62 28 9.24 28 14 C18.76 14 9.52 14 0 14 C0 9.38 0 4.76 0 0 Z " fill="#F5F6EF" transform="translate(603,512)"/>
<path d="M0 0 C4.62 0 9.24 0 14 0 C14 9.24 14 18.48 14 28 C9.38 28 4.76 28 0 28 C0 18.76 0 9.52 0 0 Z " fill="#F5F6F0" transform="translate(728,387)"/>
<path d="M0 0 C4.62 0 9.24 0 14 0 C14 9.24 14 18.48 14 28 C9.38 28 4.76 28 0 28 C0 18.76 0 9.52 0 0 Z " fill="#F5F4EF" transform="translate(686,387)"/>
<path d="M0 0 C9.24 0 18.48 0 28 0 C28 4.62 28 9.24 28 14 C18.76 14 9.52 14 0 14 C0 9.38 0 4.76 0 0 Z " fill="#F5F4EE" transform="translate(519,247)"/>
<path d="M0 0 C4.62 0 9.24 0 14 0 C14 8.91 14 17.82 14 27 C9.38 27 4.76 27 0 27 C0 18.09 0 9.18 0 0 Z " fill="#F6F6EF" transform="translate(338,401)"/>
<path d="M0 0 C4.29 0 8.58 0 13 0 C13 9.24 13 18.48 13 28 C8.71 28 4.42 28 0 28 C0 18.76 0 9.52 0 0 Z " fill="#F6F6EF" transform="translate(394,456)"/>
<path d="M0 0 C4.29 0 8.58 0 13 0 C13 8.91 13 17.82 13 27 C8.71 27 4.42 27 0 27 C0 18.09 0 9.18 0 0 Z " fill="#010000" transform="translate(380,331)"/>
<path d="M0 0 C5.99551085 0.12490648 8.87991543 1.99641484 13.19921875 6.09765625 C17.26343073 10.39108626 19 12.77745322 19 19 C12.07 19 5.14 19 -2 19 C-2 13.72 -2 8.44 -2 3 C-1.01 3 -0.02 3 1 3 C0.67 2.01 0.34 1.02 0 0 Z " fill="#535351" transform="translate(445,623)"/>
<path d="M0 0 C2.11388231 1.54516224 2.8962996 2.39318541 3.34057617 4.99291992 C3.32486572 5.73131104 3.30915527 6.46970215 3.29296875 7.23046875 C3.28330078 8.03291016 3.27363281 8.83535156 3.26367188 9.66210938 C3.23853516 10.49548828 3.21339844 11.32886719 3.1875 12.1875 C3.17396484 13.03248047 3.16042969 13.87746094 3.14648438 14.74804688 C3.11115799 16.83230384 3.05735139 18.91623277 3 21 C-1.95 21 -6.9 21 -12 21 C-12.10812003 18.24894578 -12.18734945 15.50214913 -12.25 12.75 C-12.28351563 11.97269531 -12.31703125 11.19539062 -12.3515625 10.39453125 C-12.41603026 6.62316705 -12.44692645 4.63917419 -10.23828125 1.48046875 C-6.56301313 -0.95046775 -4.34726002 -0.48302889 0 0 Z " fill="#EFEFEA" transform="translate(439,621)"/>
<path d="M0 0 C0.33 0 0.66 0 1 0 C1 4.29 1 8.58 1 13 C5.29 13 9.58 13 14 13 C14 13.33 14 13.66 14 14 C9.71 14 5.42 14 1 14 C1 23.24 1 32.48 1 42 C-3.62 42 -8.24 42 -13 42 C-13 87.87 -13 133.74 -13 181 C-13.33 181 -13.66 181 -14 181 C-14 135.13 -14 89.26 -14 42 C-18.29 42 -22.58 42 -27 42 C-27 41.67 -27 41.34 -27 41 C-22.71 41 -18.42 41 -14 41 C-14 32.09 -14 23.18 -14 14 C-13.67 14 -13.34 14 -13 14 C-13 22.91 -13 31.82 -13 41 C-8.71 41 -4.42 41 0 41 C0 27.47 0 13.94 0 0 Z " fill="#515150" transform="translate(393,317)"/>
<path d="M0 0 C5.94 0 11.88 0 18 0 C18 10.23 18 20.46 18 31 C17.67 31 17.34 31 17 31 C16.84144531 30.23816406 16.68289063 29.47632813 16.51953125 28.69140625 C13.77203012 16.5325753 8.79061117 8.79061117 0 0 Z " fill="#5A5856" transform="translate(382,604)"/>
<path d="M0 0 C4.62 0 9.24 0 14 0 C14 4.62 14 9.24 14 14 C9.38 14 4.76 14 0 14 C0 9.38 0 4.76 0 0 Z " fill="#C7C7C6" transform="translate(658,317)"/>
<path d="M0 0 C0.33 0 0.66 0 1 0 C1.04628524 8.44039195 1.08184969 16.88073111 1.10362434 25.32121849 C1.11407365 29.24023284 1.12825362 33.15916053 1.15087891 37.078125 C1.17256661 40.85823039 1.18455998 44.63825228 1.18975449 48.41841507 C1.19345759 49.86255839 1.2006886 51.306697 1.21146011 52.7508049 C1.22592017 54.76920894 1.22681645 56.78769652 1.22705078 58.80615234 C1.231492 59.95642914 1.23593323 61.10670593 1.24050903 62.2918396 C1 65 1 65 -1 67 C-1.66 66.67 -2.32 66.34 -3 66 C-3.99 66.99 -3.99 66.99 -5 68 C-4.67 66.35 -4.34 64.7 -4 63 C-5.98 62.34 -7.96 61.68 -10 61 C-10 60.34 -10 59.68 -10 59 C-10.99 58.67 -11.98 58.34 -13 58 C-9.484375 53.3125 -9.484375 53.3125 -8 52 C-6.68 52 -5.36 52 -4 52 C-3.67 50.68 -3.34 49.36 -3 48 C-2.67 48.99 -2.34 49.98 -2 51 C-0.37392364 49.37392364 -0.83409069 47.54316935 -0.79467773 45.29663086 C-0.77473251 44.29566879 -0.75478729 43.29470673 -0.73423767 42.26341248 C-0.71752518 41.1748848 -0.70081268 40.08635712 -0.68359375 38.96484375 C-0.66281265 37.85645645 -0.64203156 36.74806915 -0.62062073 35.60609436 C-0.55500377 32.04996192 -0.49618404 28.49375297 -0.4375 24.9375 C-0.39432632 22.53319507 -0.35071242 20.12889801 -0.30664062 17.72460938 C-0.19931008 11.81648815 -0.09756669 5.90829009 0 0 Z " fill="#D9D8D3" transform="translate(471,610)"/>
<path d="M0 0 C3.07156669 3.07156669 3.65912055 6.95758756 4.90234375 11.0546875 C5.95005508 13.8659841 7.16490707 15.6682295 9 18 C9 18.66 9 19.32 9 20 C9.99 20.33 10.98 20.66 12 21 C13.3743291 22.29103643 14.70896357 23.6256709 16 25 C16.66 25.66 17.32 26.32 18 27 C12.06 27 6.12 27 0 27 C0 18.09 0 9.18 0 0 Z " fill="#565454" transform="translate(340,652)"/>
<path d="M0 0 C4.62 0 9.24 0 14 0 C14 23.1 14 46.2 14 70 C13.67 70 13.34 70 13 70 C13 56.14 13 42.28 13 28 C11.68 28 10.36 28 9 28 C9 20.08 9 12.16 9 4 C10.32 3.67 11.64 3.34 13 3 C13 2.34 13 1.68 13 1 C8.71 1 4.42 1 0 1 C0 0.67 0 0.34 0 0 Z " fill="#AFAFAE" transform="translate(394,428)"/>
<path d="M0 0 C0.33 0 0.66 0 1 0 C1 5.28 1 10.56 1 16 C-7.58 16 -16.16 16 -25 16 C-22.21381889 14.60690945 -19.48324069 13.33849868 -16.625 12.125 C-9.87818882 9.12150959 -5.11081964 5.22967591 0 0 Z " fill="#5C5B59" transform="translate(677,663)"/>
<path d="M0 0 C0.66 0.33 1.32 0.66 2 1 C2.17942163 4.94727588 2.09350689 7.5980513 0 11 C0.78375 11.45375 1.5675 11.9075 2.375 12.375 C5 14 5 14 7 16 C1.21642935 18.01167675 -3.90218999 18.22084624 -10 18 C-10.33 17.34 -10.66 16.68 -11 16 C-9.70703125 13.57421875 -9.70703125 13.57421875 -7.8125 10.6875 C-6.89404297 9.27017578 -6.89404297 9.27017578 -5.95703125 7.82421875 C-4.078534 5.1133335 -2.09290485 2.5476824 0 0 Z " fill="#EBEBE6" transform="translate(652,661)"/>
<path d="M0 0 C1.17539996 0.92652701 2.34010577 1.86663387 3.5 2.8125 C4.1496875 3.33457031 4.799375 3.85664062 5.46875 4.39453125 C7 6 7 6 7 9 C5.35 8.01 3.7 7.02 2 6 C2.00523682 6.76739502 2.01047363 7.53479004 2.01586914 8.32543945 C2.12295885 26.58084631 1.83621838 44.75887454 1 63 C0.67 63 0.34 63 0 63 C-0.15371916 55.08123253 -0.30190064 47.16238929 -0.4429636 39.24338722 C-0.50863598 35.56649721 -0.57623368 31.88966339 -0.64819336 28.21289062 C-0.71753528 24.66628415 -0.78186953 21.1196193 -0.84269524 17.5728569 C-0.86681786 16.21800804 -0.89276147 14.86319036 -0.92053413 13.50841141 C-0.95904959 11.61458557 -0.99055898 9.72062114 -1.02172852 7.82666016 C-1.04171402 6.74744293 -1.06169952 5.66822571 -1.08229065 4.55630493 C-1 2 -1 2 0 0 Z " fill="#B7B7B2" transform="translate(339,616)"/>
<path d="M0 0 C2 3 4 6 6 9 C5.67 9.66 5.34 10.32 5 11 C3.68 10.34 2.36 9.68 1 9 C0.34 10.98 -0.32 12.96 -1 15 C-2.32 14.01 -3.64 13.02 -5 12 C-4.34 12 -3.68 12 -3 12 C-3 11.34 -3 10.68 -3 10 C-3.99 10.33 -4.98 10.66 -6 11 C-6.66 10.67 -7.32 10.34 -8 10 C-7.67 10.99 -7.34 11.98 -7 13 C-7.99 12.67 -8.98 12.34 -10 12 C-8.90777974 8.72333923 -8.17281146 8.08390769 -5.5625 6 C-3.11225368 4.03571068 -1.78619422 2.67929132 0 0 Z " fill="#565452" transform="translate(514,639)"/>
<path d="M0 0 C4.62 0 9.24 0 14 0 C14 0.66 14 1.32 14 2 C13.34 2 12.68 2 12 2 C11.67 2.99 11.34 3.98 11 5 C8.46221127 7.73814047 6.1110644 9.92595707 3 12 C3.061875 10.948125 3.12375 9.89625 3.1875 8.8125 C3.27957731 4.57487167 3.27957731 4.57487167 0 0 Z " fill="#5B5A56" transform="translate(512,627)"/>
<path d="M0 0 C0.33 0 0.66 0 1 0 C1.90972518 9.68734381 2.19722582 18.41210552 0 28 C-1.1725131 27.04882866 -2.33787015 26.08882991 -3.5 25.125 C-4.1496875 24.59132813 -4.799375 24.05765625 -5.46875 23.5078125 C-6.22671875 22.76144531 -6.22671875 22.76144531 -7 22 C-7 21.34 -7 20.68 -7 20 C-5.68 20 -4.36 20 -3 20 C-2.67 17.36 -2.34 14.72 -2 12 C-1.67 12 -1.34 12 -1 12 C-0.67 8.04 -0.34 4.08 0 0 Z " fill="#DEDDD9" transform="translate(400,617)"/>
<path d="M0 0 C0.33 0 0.66 0 1 0 C1 1.65 1 3.3 1 5 C1.66 5 2.32 5 3 5 C3 5.99 3 6.98 3 8 C3.66 8 4.32 8 5 8 C4.67 7.01 4.34 6.02 4 5 C5.98 5 7.96 5 10 5 C10.33 5.66 10.66 6.32 11 7 C10.46890625 7.45890625 9.9378125 7.9178125 9.390625 8.390625 C8.68421875 9.00421875 7.9778125 9.6178125 7.25 10.25 C6.55390625 10.85328125 5.8578125 11.4565625 5.140625 12.078125 C3.02467206 13.97784917 1.01074722 15.98925278 -1 18 C-0.505 9.09 -0.505 9.09 0 0 Z " fill="#62605E" transform="translate(617,620)"/>
<path d="M0 0 C0 1.65 0 3.3 0 5 C-8.25 5 -16.5 5 -25 5 C-21.80107719 3.4005386 -19.64537424 2.57404764 -16.25 1.875 C-15.45078125 1.70742188 -14.6515625 1.53984375 -13.828125 1.3671875 C-13.22484375 1.24601563 -12.6215625 1.12484375 -12 1 C-11.67 1.66 -11.34 2.32 -11 3 C-8.78325131 2.52498242 -6.96142901 1.9801301 -4.9375 0.9375 C-3 0 -3 0 0 0 Z " fill="#575553" transform="translate(677,674)"/>
<path d="M0 0 C2.375 0.75 2.375 0.75 5 2 C5.66666667 3.33333333 6.33333333 4.66666667 7 6 C9.53770003 7.28254644 9.53770003 7.28254644 12 8 C12 8.66 12 9.32 12 10 C12.66 10 13.32 10 14 10 C14.33 9.34 14.66 8.68 15 8 C15.12375 9.175625 15.12375 9.175625 15.25 10.375 C15.72806339 13.14749104 15.72806339 13.14749104 18.0625 14.3125 C18.701875 14.539375 19.34125 14.76625 20 15 C19.67 15.99 19.34 16.98 19 18 C18.67 17.34 18.34 16.68 18 16 C17.3905957 15.85820313 16.78119141 15.71640625 16.15332031 15.5703125 C13.50894918 14.86994391 12.45452854 13.81417602 10.546875 11.875 C9.928125 11.25109375 9.309375 10.6271875 8.671875 9.984375 C8.03765625 9.32953125 7.4034375 8.6746875 6.75 8 C6.1003125 7.34515625 5.450625 6.6903125 4.78125 6.015625 C0 1.15401786 0 1.15401786 0 0 Z " fill="#5C5C59" transform="translate(376,654)"/>
<path d="M0 0 C-0.66 0.66 -1.32 1.32 -2 2 C-1.67958603 4.60280568 -1.67958603 4.60280568 -1 7 C-5.70784435 4.45521927 -5.70784435 4.45521927 -7.34375 1.90625 C-8.85873335 -0.25044572 -8.85873335 -0.25044572 -11.48046875 -0.390625 C-12.37378906 -0.34421875 -13.26710938 -0.2978125 -14.1875 -0.25 C-15.08855469 -0.21390625 -15.98960937 -0.1778125 -16.91796875 -0.140625 C-17.60503906 -0.09421875 -18.29210937 -0.0478125 -19 0 C-19 0.66 -19 1.32 -19 2 C-20.32 1.67 -21.64 1.34 -23 1 C-23 0.34 -23 -0.32 -23 -1 C-15.50050871 -2.72006681 -7.14481562 -3.17547361 0 0 Z " fill="#595854" transform="translate(448,622)"/>
<path d="M0 0 C3.71824156 1.23941385 4.67378745 2.9233963 7 6 C7.66 6.66 8.32 7.32 9 8 C7.25 8.75 7.25 8.75 5 9 C2.75 7.0625 2.75 7.0625 1 5 C1 6.32 1 7.64 1 9 C0.34 9 -0.32 9 -1 9 C-1.33 8.01 -1.66 7.02 -2 6 C-2.66 5.34 -3.32 4.68 -4 4 C-2.68 2.68 -1.36 1.36 0 0 Z M3 9 C5 10 5 10 5 10 Z " fill="#E8E7E2" transform="translate(723,669)"/>
<path d="M0 0 C0 3.96 0 7.92 0 12 C-2 9 -2 9 -2 7 C-3.65 7 -5.3 7 -7 7 C-6.6875 4.625 -6.6875 4.625 -6 2 C-3 0 -3 0 0 0 Z " fill="#535250" transform="translate(400,608)"/>
<path d="M0 0 C1.1875 1.6875 1.1875 1.6875 2 4 C1.03114628 5.68496298 0.03013277 7.35178756 -1 9 C-0.79356801 11.25328412 -0.79356801 11.25328412 0 13 C-0.66 13 -1.32 13 -2 13 C-3.98 9.535 -3.98 9.535 -6 6 C-4.02 4.02 -2.04 2.04 0 0 Z " fill="#5C5C5A" transform="translate(503,651)"/>
<path d="M0 0 C2.97 0.495 2.97 0.495 6 1 C4.515 3.475 4.515 3.475 3 6 C4.65 6 6.3 6 8 6 C8 6.33 8 6.66 8 7 C4.7 7 1.4 7 -2 7 C-2.33 6.34 -2.66 5.68 -3 5 C-1.5625 2.375 -1.5625 2.375 0 0 Z " fill="#E0DFDA" transform="translate(644,672)"/>
<path d="M0 0 C1.32 0.66 2.64 1.32 4 2 C3.60167969 2.45890625 3.20335937 2.9178125 2.79296875 3.390625 C0.08857938 6.52271585 -2.57991771 9.63877459 -5 13 C-5.8125 9.8125 -5.8125 9.8125 -6 6 C-3.625 3.125 -3.625 3.125 -1 1 C-0.67 0.67 -0.34 0.34 0 0 Z " fill="#EBEAE6" transform="translate(551,626)"/>
<path d="M0 0 C1.65 0 3.3 0 5 0 C5 0.66 5 1.32 5 2 C5.66 2.33 6.32 2.66 7 3 C4.78071806 5.90802461 3.07030857 7.95312762 0 10 C0 6.7 0 3.4 0 0 Z " fill="#EAE9E6" transform="translate(495,650)"/>
<path d="M0 0 C1.33617352 0.97528737 2.6688751 1.95533319 4 2.9375 C5.11375 3.75541016 5.11375 3.75541016 6.25 4.58984375 C6.8275 5.05519531 7.405 5.52054688 8 6 C8 6.33 8 6.66 8 7 C6.20866022 7.05391993 4.41686101 7.09275571 2.625 7.125 C1.62726563 7.14820313 0.62953125 7.17140625 -0.3984375 7.1953125 C-3 7 -3 7 -5 5 C-4.175 4.54625 -3.35 4.0925 -2.5 3.625 C-1.2625 2.820625 -1.2625 2.820625 0 2 C0 1.34 0 0.68 0 0 Z " fill="#5D5C59" transform="translate(350,672)"/>
<path d="M0 0 C0.99 0.33 1.98 0.66 3 1 C0.79080336 4.75563429 -1.56384272 8.38776679 -4 12 C-4.99 11.67 -5.98 11.34 -7 11 C-6.75 8.625 -6.75 8.625 -6 6 C-4.0625 4.9375 -4.0625 4.9375 -2 4 C-0.73195434 1.9664052 -0.73195434 1.9664052 0 0 Z " fill="#E6E6E1" transform="translate(644,627)"/>
<path d="M0 0 C3 1 3 1 5 4 C5 5.32 5 6.64 5 8 C5.66 8 6.32 8 7 8 C7 8.66 7 9.32 7 10 C6.01 10.33 5.02 10.66 4 11 C2 8 0 5 -2 2 C-1.34 2 -0.68 2 0 2 C0 1.34 0 0.68 0 0 Z " fill="#EBEAE5" transform="translate(599,625)"/>
<path d="M0 0 C0.66 0.33 1.32 0.66 2 1 C2 3 2 3 0.625 4.625 C-1 6 -1 6 -3 6 C-3.66 7.32 -4.32 8.64 -5 10 C-5.99 9.67 -6.98 9.34 -8 9 C-5.89851796 5.01824456 -3.63094642 2.64960955 0 0 Z " fill="#605F5C" transform="translate(417,625)"/>
<path d="M0 0 C2.375 -0.1875 2.375 -0.1875 5 0 C5.66 0.99 6.32 1.98 7 3 C6.34 3.66 5.68 4.32 5 5 C4.34 4.67 3.68 4.34 3 4 C3 4.66 3 5.32 3 6 C3.66 6.33 4.32 6.66 5 7 C3.35 7 1.7 7 0 7 C0 4.69 0 2.38 0 0 Z " fill="#E9E8E3" transform="translate(343,624)"/>
<path d="M0 0 C2.97 0.33 5.94 0.66 9 1 C9 1.33 9 1.66 9 2 C11.31 2.33 13.62 2.66 16 3 C16 3.33 16 3.66 16 4 C10.39 4 4.78 4 -1 4 C-0.67 2.68 -0.34 1.36 0 0 Z " fill="#5D5C59" transform="translate(471,675)"/>
<path d="M0 0 C0.99 0.99 1.98 1.98 3 3 C-2.00932754 6.00559652 -5.32723489 6.29341888 -11 6 C-7.91190305 4.23537317 -6.76687864 4 -3 4 C-3 3.34 -3 2.68 -3 2 C-2.01 1.34 -1.02 0.68 0 0 Z " fill="#62615E" transform="translate(747,673)"/>
<path d="M0 0 C0.33 0 0.66 0 1 0 C1 4.95 1 9.9 1 15 C0.01 15.33 -0.98 15.66 -2 16 C-3.32 14.35 -4.64 12.7 -6 11 C-5.67 10.34 -5.34 9.68 -5 9 C-3.68 10.32 -2.36 11.64 -1 13 C-0.67 8.71 -0.34 4.42 0 0 Z " fill="#E2E1DC" transform="translate(400,664)"/>
<path d="M0 0 C2.79872437 2.52788007 4.45773019 4.20411134 5 8 C3.35 8 1.7 8 0 8 C-0.66666667 6.66666667 -1.33333333 5.33333333 -2 4 C-1.0625 1.875 -1.0625 1.875 0 0 Z " fill="#636360" transform="translate(459,631)"/>
<path d="M0 0 C0.33 0 0.66 0 1 0 C1 4.62 1 9.24 1 14 C-0.32 14.33 -1.64 14.66 -3 15 C-2.67 14.34 -2.34 13.68 -2 13 C-1.96967814 10.75618252 -2.06643448 8.53088736 -2.16015625 6.2890625 C-1.98208151 3.74389667 -1.27356922 2.18754243 0 0 Z " fill="#D4D3CF" transform="translate(365,484)"/>
<path d="M0 0 C1.32 0.33 2.64 0.66 4 1 C4 2.32 4 3.64 4 5 C0.7 5.33 -2.6 5.66 -6 6 C-5.195625 5.38125 -4.39125 4.7625 -3.5625 4.125 C-0.96125481 2.25835959 -0.96125481 2.25835959 0 0 Z " fill="#64635F" transform="translate(583,673)"/>
<path d="M0 0 C0.66 0 1.32 0 2 0 C0.16795959 5.34345119 -2.93973834 9.14275142 -7 13 C-7 9.19794574 -5.7999031 7.88843439 -3.625 4.8125 C-2.99851562 3.91144531 -2.37203125 3.01039063 -1.7265625 2.08203125 C-1.15679688 1.39496094 -0.58703125 0.70789063 0 0 Z " fill="#636360" transform="translate(643,633)"/>
<path d="M0 0 C1.32 0.66 2.64 1.32 4 2 C-0.455 3.485 -0.455 3.485 -5 5 C-5.33 4.01 -5.66 3.02 -6 2 C-6.99 1.67 -7.98 1.34 -9 1 C-7.88625 1.020625 -6.7725 1.04125 -5.625 1.0625 C-2.16784079 1.26380718 -2.16784079 1.26380718 0 0 Z " fill="#E5E4DF" transform="translate(427,618)"/>
<path d="M0 0 C2.3129482 2.3129482 2.49580975 3.47904875 3.125 6.625 C3.29257812 7.44226563 3.46015625 8.25953125 3.6328125 9.1015625 C3.81457031 10.04128906 3.81457031 10.04128906 4 11 C2.68 11 1.36 11 0 11 C0 7.37 0 3.74 0 0 Z " fill="#646361" transform="translate(340,652)"/>
<path d="M0 0 C1.60294922 0.01353516 1.60294922 0.01353516 3.23828125 0.02734375 C4.04652344 0.03894531 4.85476563 0.05054688 5.6875 0.0625 C4.6975 1.5475 4.6975 1.5475 3.6875 3.0625 C3.3575 2.7325 3.0275 2.4025 2.6875 2.0625 C1.00141034 1.99044489 -0.68750659 1.97863932 -2.375 2 C-3.29410156 2.00902344 -4.21320313 2.01804687 -5.16015625 2.02734375 C-5.87042969 2.03894531 -6.58070313 2.05054688 -7.3125 2.0625 C-7.3125 2.7225 -7.3125 3.3825 -7.3125 4.0625 C-8.6325 3.7325 -9.9525 3.4025 -11.3125 3.0625 C-11.3125 2.4025 -11.3125 1.7425 -11.3125 1.0625 C-7.47525828 0.15836327 -3.93747726 -0.04326898 0 0 Z " fill="#73726D" transform="translate(436.3125,619.9375)"/>
<path d="M0 0 C2.97 0.495 2.97 0.495 6 1 C6.33 2.98 6.66 4.96 7 7 C4.69 6.34 2.38 5.68 0 5 C0 3.35 0 1.7 0 0 Z " fill="#E7E6E1" transform="translate(445,617)"/>
<path d="M0 0 C0 1.98 0 3.96 0 6 C-0.99 6 -1.98 6 -3 6 C-3 5.34 -3 4.68 -3 4 C-3.66 4 -4.32 4 -5 4 C-5.33 4.66 -5.66 5.32 -6 6 C-6.33 4.35 -6.66 2.7 -7 1 C-4 0 -4 0 0 0 Z " fill="#E9E8E3" transform="translate(471,602)"/>
<path d="M0 0 C0 3.90838866 -1.50567876 5.11594107 -4 8 C-5.32 7.67 -6.64 7.34 -8 7 C-8 6.34 -8 5.68 -8 5 C-6.25 3.7109375 -6.25 3.7109375 -4 2.375 C-3.2575 1.92898438 -2.515 1.48296875 -1.75 1.0234375 C-1.1725 0.68570313 -0.595 0.34796875 0 0 Z " fill="#605F5B" transform="translate(463,660)"/>
<path d="M0 0 C0.33 0.66 0.66 1.32 1 2 C0.67 2.99 0.34 3.98 0 5 C0.99 5 1.98 5 3 5 C2.67 5.66 2.34 6.32 2 7 C-0.0625 7.625 -0.0625 7.625 -2 8 C-2.66 6.35 -3.32 4.7 -4 3 C-2.68 2.01 -1.36 1.02 0 0 Z " fill="#EAE8E7" transform="translate(348,659)"/>
<path d="M0 0 C2.38564077 0.57584432 4.66682784 1.22227595 7 2 C7.6875 4.0625 7.6875 4.0625 8 6 C4.06830895 6 2.83572772 4.60580385 0 2 C0 1.34 0 0.68 0 0 Z " fill="#E5E5E2" transform="translate(376,621)"/>
<path d="M0 0 C0.66 0.33 1.32 0.66 2 1 C0.125 4.875 0.125 4.875 -1 6 C-4 6 -4 6 -7 4 C-1.7265625 0.77734375 -1.7265625 0.77734375 0 0 Z " fill="#E0DFDA" transform="translate(455,671)"/>
<path d="M0 0 C4.39158329 1.4638611 4.87947433 3.97831338 7 8 C6.34 8 5.68 8 5 8 C4.67 8.66 4.34 9.32 4 10 C1.125 3.375 1.125 3.375 0 0 Z " fill="#605E5D" transform="translate(529,666)"/>
<path d="M0 0 C1.98 1.65 3.96 3.3 6 5 C5.34 5.66 4.68 6.32 4 7 C2.35 5.35 0.7 3.7 -1 2 C-1.33 2.99 -1.66 3.98 -2 5 C-2.33 4.01 -2.66 3.02 -3 2 C-2.01 1.34 -1.02 0.68 0 0 Z " fill="#EAEBE5" transform="translate(356,634)"/>
<path d="M0 0 C1.65 0.33 3.3 0.66 5 1 C5.33 1.99 5.66 2.98 6 4 C3.03 4 0.06 4 -3 4 C-2.01 2.68 -1.02 1.36 0 0 Z " fill="#605F5C" transform="translate(432,675)"/>
<path d="M0 0 C0.33 0.99 0.66 1.98 1 3 C-1.76264289 3.59732819 -4.16032769 4 -7 4 C-7.33 3.01 -7.66 2.02 -8 1 C-5.07175348 0.02391783 -3.04386724 -0.08226668 0 0 Z " fill="#504F4E" transform="translate(457,666)"/>
<path d="M0 0 C2 3 4 6 6 9 C5.67 9.66 5.34 10.32 5 11 C2.5625 9.9375 2.5625 9.9375 0 8 C-0.875 4.375 -0.875 4.375 -1 1 C-0.67 0.67 -0.34 0.34 0 0 Z " fill="#6C6B67" transform="translate(514,639)"/>
<path d="M0 0 C3 1 3 1 4.0625 2.9375 C4.371875 3.618125 4.68125 4.29875 5 5 C5.66 5.66 6.32 6.32 7 7 C6.34 7.66 5.68 8.32 5 9 C0 3.375 0 3.375 0 0 Z " fill="#5C5B59" transform="translate(364,638)"/>
<path d="M0 0 C3.53600465 1.91135386 5.78972846 3.62642766 8 7 C4.47967572 7 3.5614657 6.29648649 1 4 C1 3.34 1 2.68 1 2 C0.34 1.67 -0.32 1.34 -1 1 C-0.67 0.67 -0.34 0.34 0 0 Z " fill="#5F5F5C" transform="translate(451,624)"/>
<path d="M0 0 C3.01327566 1.50663783 3.61056618 4.03166411 5 7 C3.35 7 1.7 7 0 7 C0 4.69 0 2.38 0 0 Z " fill="#F4F5F0" transform="translate(617,295)"/>
<path d="M0 0 C0.99 0.33 1.98 0.66 3 1 C2.67 1.99 2.34 2.98 2 4 C-0.5625 5.1875 -0.5625 5.1875 -3 6 C-3 3 -3 3 -1.5 1.3125 C-0.7575 0.6628125 -0.7575 0.6628125 0 0 Z " fill="#E9E9E4" transform="translate(600,668)"/>
<path d="M0 0 C2.0625 0.4375 2.0625 0.4375 4 1 C4 2.98 4 4.96 4 7 C3.34 6.01 2.68 5.02 2 4 C1.01 4.66 0.02 5.32 -1 6 C-1.042721 4.33388095 -1.04063832 2.66617115 -1 1 C-0.67 0.67 -0.34 0.34 0 0 Z " fill="#CFCEC9" transform="translate(675,660)"/>
<path d="M0 0 C1.98 1.65 3.96 3.3 6 5 C5.34 5.66 4.68 6.32 4 7 C1.875 6.625 1.875 6.625 0 6 C0 4.02 0 2.04 0 0 Z " fill="#E6E5E0" transform="translate(362,640)"/>
<path d="M0 0 C1.22376937 3.6713081 0.61664584 4.59653508 -1 8 C-1.99 9.485 -1.99 9.485 -3 11 C-3.66 10.67 -4.32 10.34 -5 10 C-3.66511872 6.40608886 -2.03977277 3.24509304 0 0 Z " fill="#4F4F4D" transform="translate(647,628)"/>
<path d="M0 0 C0.66 0.99 1.32 1.98 2 3 C0.25 3.75 0.25 3.75 -2 4 C-4.25 2.0625 -4.25 2.0625 -6 0 C-2.25 -1.125 -2.25 -1.125 0 0 Z " fill="#E5E4DF" transform="translate(358,674)"/>
<path d="M0 0 C2.475 0.99 2.475 0.99 5 2 C3.75 3.5625 3.75 3.5625 2 5 C-0.1875 4.6875 -0.1875 4.6875 -2 4 C-1 1 -1 1 0 0 Z " fill="#E5E4E0" transform="translate(414,672)"/>
<path d="M0 0 C4.7037037 1.48538012 4.7037037 1.48538012 6.1875 4.0625 C6.455625 4.701875 6.72375 5.34125 7 6 C7.66 6.33 8.32 6.66 9 7 C6 7 6 7 4.39453125 5.46875 C3.87246094 4.8190625 3.35039062 4.169375 2.8125 3.5 C2.28269531 2.8503125 1.75289063 2.200625 1.20703125 1.53125 C0.80871094 1.0259375 0.41039062 0.520625 0 0 Z " fill="#6E6D69" transform="translate(376,654)"/>
<path d="M0 0 C0 2.66420516 -0.09162237 4.52260646 -1 7 C-1.99 7.33 -2.98 7.66 -4 8 C-3.50168276 4.31245243 -2.89932357 2.39509338 0 0 Z " fill="#E1E0DC" transform="translate(572,621)"/>
<path d="M0 0 C1.6875 1.25 1.6875 1.25 3 3 C2.6875 5.1875 2.6875 5.1875 2 7 C1.34 6.01 0.68 5.02 0 4 C-2.56282742 3.27034634 -2.56282742 3.27034634 -5 3 C-2.25 0 -2.25 0 0 0 Z " fill="#E5E4E1" transform="translate(359,601)"/>
<path d="M0 0 C1.485 0.99 1.485 0.99 3 2 C3.1875 5.125 3.1875 5.125 3 8 C2.01 8.33 1.02 8.66 0 9 C0.33 8.01 0.66 7.02 1 6 C0.34 5.67 -0.32 5.34 -1 5 C-0.67 3.35 -0.34 1.7 0 0 Z " fill="#F7F6F2" transform="translate(516,236)"/>
<path d="M0 0 C1.65 0 3.3 0 5 0 C5.103125 0.639375 5.20625 1.27875 5.3125 1.9375 C5.539375 2.618125 5.76625 3.29875 6 4 C6.99 4.33 7.98 4.66 9 5 C3.48387097 4.38709677 3.48387097 4.38709677 1.125 2.5 C0 1 0 1 0 0 Z " fill="#656363" transform="translate(696,674)"/>
<path d="M0 0 C2 3 2 3 2 5 C2.99 5.33 3.98 5.66 5 6 C4.67 6.66 4.34 7.32 4 8 C1.75633004 6.87816502 -0.07335866 5.60553445 -2 4 C-2 3.34 -2 2.68 -2 2 C-1.34 2 -0.68 2 0 2 C0 1.34 0 0.68 0 0 Z " fill="#F6F5F1" transform="translate(653,668)"/>
<path d="M0 0 C3.875 4.75 3.875 4.75 5 7 C4.34 7.66 3.68 8.32 3 9 C2.67 8.01 2.34 7.02 2 6 C1.34 5.67 0.68 5.34 0 5 C0.33 4.34 0.66 3.68 1 3 C0.34 2.67 -0.32 2.34 -1 2 C-0.67 1.34 -0.34 0.68 0 0 Z " fill="#E3E4E0" transform="translate(498,659)"/>
<path d="M0 0 C1.98 0 3.96 0 6 0 C6 1.98 6 3.96 6 6 C3.97945196 4.35830472 1.97956942 2.69088222 0 1 C0 0.67 0 0.34 0 0 Z " fill="#E9E8E3" transform="translate(431,657)"/>
<path d="M0 0 C1.32 1.65 2.64 3.3 4 5 C3.01 6.485 3.01 6.485 2 8 C0.68 6.68 -0.64 5.36 -2 4 C-1.34 2.68 -0.68 1.36 0 0 Z " fill="#626262" transform="translate(524,656)"/>
<path d="M0 0 C-0.99 1.485 -0.99 1.485 -2 3 C-3.65 2.67 -5.3 2.34 -7 2 C-6.67 2.99 -6.34 3.98 -6 5 C-6.99 4.67 -7.98 4.34 -9 4 C-8.67 3.01 -8.34 2.02 -8 1 C-5.29120665 -0.35439668 -2.99066732 -0.06501451 0 0 Z " fill="#666563" transform="translate(513,647)"/>
<path d="M0 0 C0.66 1.32 1.32 2.64 2 4 C0.68 5.32 -0.64 6.64 -2 8 C-3 5 -3 5 -2 2 C-1.34 2 -0.68 2 0 2 C0 1.34 0 0.68 0 0 Z " fill="#5F5E5C" transform="translate(662,641)"/>
<path d="M0 0 C0.66 0.33 1.32 0.66 2 1 C1.6875 2.875 1.6875 2.875 1 5 C0.01 5.66 -0.98 6.32 -2 7 C-2 3 -2 3 0 0 Z " fill="#E6E5E1" transform="translate(508,641)"/>
<path d="M0 0 C0 0.66 0 1.32 0 2 C-0.66 2 -1.32 2 -2 2 C-2.33 2.99 -2.66 3.98 -3 5 C-4.65 4.67 -6.3 4.34 -8 4 C-3.375 0 -3.375 0 0 0 Z " fill="#5F5E5A" transform="translate(526,627)"/>
<path d="M0 0 C1.98 1.65 3.96 3.3 6 5 C5.34 5.66 4.68 6.32 4 7 C1.875 6.625 1.875 6.625 0 6 C0 4 0 2 0 0 Z " fill="#656565" transform="translate(362,608)"/>
<path d="M0 0 C0.99 0.99 1.98 1.98 3 3 C2.34 4.32 1.68 5.64 1 7 C0.01 5.68 -0.98 4.36 -2 3 C-1.34 2.01 -0.68 1.02 0 0 Z " fill="#E8E7E2" transform="translate(517,639)"/>
<path d="M0 0 C2.31 0.66 4.62 1.32 7 2 C7 2.99 7 3.98 7 5 C4.0625 4.1875 4.0625 4.1875 1 3 C0.67 2.01 0.34 1.02 0 0 Z " fill="#646361" transform="translate(419,673)"/>
<path d="M0 0 C0.33 0 0.66 0 1 0 C1 1.98 1 3.96 1 6 C-0.32 6 -1.64 6 -3 6 C-3.33 5.01 -3.66 4.02 -4 3 C-3.01 3 -2.02 3 -1 3 C-0.67 2.01 -0.34 1.02 0 0 Z " fill="#EAE9E6" transform="translate(533,660)"/>
<path d="M0 0 C0.66 0.33 1.32 0.66 2 1 C2 2.65 2 4.3 2 6 C1.01 5.67 0.02 5.34 -1 5 C-1 5.66 -1 6.32 -1 7 C-1.66 6.67 -2.32 6.34 -3 6 C-2.01 4.02 -1.02 2.04 0 0 Z " fill="#E0E0DD" transform="translate(605,659)"/>
<path d="M0 0 C0.66 0.99 1.32 1.98 2 3 C0.68 4.32 -0.64 5.64 -2 7 C-2.66 6.34 -3.32 5.68 -4 5 C-2.68 3.35 -1.36 1.7 0 0 Z " fill="#626261" transform="translate(627,656)"/>
<path d="M0 0 C2.88575819 0.39803561 3.82189513 0.79009069 5.75 3.0625 C6.1625 3.701875 6.575 4.34125 7 5 C6.01 5 5.02 5 4 5 C4 4.34 4 3.68 4 3 C2.68 2.67 1.36 2.34 0 2 C0 1.34 0 0.68 0 0 Z " fill="#605F5E" transform="translate(386,634)"/>
<path d="M0 0 C2.31 0 4.62 0 7 0 C4.94766315 2.2477975 3.99332739 3.0022242 1 4 C0.67 2.68 0.34 1.36 0 0 Z " fill="#51504C" transform="translate(516,627)"/>
<path d="M0 0 C1.32 0.66 2.64 1.32 4 2 C2.68 2.99 1.36 3.98 0 5 C-0.99 4.34 -1.98 3.68 -3 3 C-2.01 2.01 -1.02 1.02 0 0 Z " fill="#E1E0DC" transform="translate(551,626)"/>
<path d="M0 0 C1.42944945 2.35438733 2.08661261 3.48032433 1.625 6.25 C1.41875 6.8275 1.2125 7.405 1 8 C0.01 7.67 -0.98 7.34 -2 7 C-1.34 6.67 -0.68 6.34 0 6 C0 5.34 0 4.68 0 4 C-0.66 3.67 -1.32 3.34 -2 3 C-2 2.34 -2 1.68 -2 1 C-1.34 0.67 -0.68 0.34 0 0 Z " fill="#5D5D5D" transform="translate(422,622)"/>
<path d="M0 0 C0.66 0 1.32 0 2 0 C2.36923077 5.53846154 2.36923077 5.53846154 0.5 7.875 C-0.2425 8.431875 -0.2425 8.431875 -1 9 C-1.09765625 2.84765625 -1.09765625 2.84765625 -1 1 C-0.67 0.67 -0.34 0.34 0 0 Z " fill="#F6F6F1" transform="translate(749,621)"/>
</svg>
