<?xml version="1.0" encoding="UTF-8"?>
<svg version="1.1" xmlns="http://www.w3.org/2000/svg" width="640" height="640">
<path d="M0 0 C211.2 0 422.4 0 640 0 C640 211.2 640 422.4 640 640 C428.8 640 217.6 640 0 640 C0 428.8 0 217.6 0 0 Z " fill="#F1F0EB" transform="translate(0,0)"/>
<path d="M0 0 C0.85576575 -0.00538554 1.71153149 -0.01077108 2.59322953 -0.01631981 C5.44806374 -0.03057642 8.30243275 -0.02350127 11.1572876 -0.01637268 C13.2094154 -0.02207756 15.26154003 -0.02904228 17.31365967 -0.03717041 C22.87996771 -0.05510692 28.44611814 -0.05393209 34.0124464 -0.04822803 C38.6643068 -0.04513593 43.31613693 -0.0512291 47.96799302 -0.05726677 C58.94713247 -0.07131294 69.92619412 -0.06975081 80.90533447 -0.05836487 C92.21781266 -0.04689218 103.53005354 -0.06094495 114.84250045 -0.08776134 C124.56589224 -0.10994472 134.28920969 -0.11654951 144.01262498 -0.11068493 C149.81501079 -0.10731944 155.61724462 -0.10970304 161.41960907 -0.12693596 C166.87965823 -0.14244421 172.33935718 -0.13840631 177.7993927 -0.11963081 C179.7975737 -0.11595524 181.79578086 -0.11902314 183.79393768 -0.1295166 C195.26110151 -0.1851149 204.95416526 0.00428322 215.07232666 6.07518005 C221.02291729 12.36580444 224.36793545 18.09176714 224.40699768 26.78140259 C224.41773064 28.42352219 224.41773064 28.42352219 224.42868042 30.09881592 C224.43136932 31.29524216 224.43405823 32.4916684 224.43682861 33.72434998 C224.44339981 34.98819519 224.44997101 36.25204041 224.45674133 37.55418396 C224.47773855 41.74215943 224.48814071 45.93013507 224.49810791 50.1181488 C224.5021573 51.56296113 224.50627428 53.00777327 224.51045799 54.45258522 C224.52950136 61.24265032 224.54373331 68.03270462 224.55206996 74.82279128 C224.56183488 82.64584908 224.58813824 90.46862337 224.62857085 98.29158133 C224.65879171 104.34780586 224.67354453 110.40394939 224.67685097 116.46024781 C224.67919496 120.07286159 224.68806944 123.6851722 224.71331215 127.2977047 C224.74105627 131.33332859 224.7367436 135.36832409 224.72979736 139.40403748 C224.74901245 141.1834951 224.74901245 141.1834951 224.76861572 142.99890137 C224.71046075 152.2855627 222.57311768 159.92090225 216.11634827 166.82922363 C208.39089652 173.31435143 199.90924815 174.04180001 190.17771339 173.73474312 C188.03376005 173.671112 185.89236607 173.64664998 183.74754333 173.63241577 C177.65965798 173.58759994 171.57396478 173.49412608 165.48809814 173.32981873 C143.70119644 172.13293347 143.70119644 172.13293347 124.93772888 181.64778137 C123.84634665 182.71726796 122.77159398 183.80409105 121.71731567 184.91017151 C119.62604787 187.0301642 117.27295768 188.67618624 114.83013916 190.3681488 C114.07861572 190.91148865 113.32709229 191.45482849 112.55279541 192.01463318 C111.47965088 192.78710388 111.47965088 192.78710388 110.38482666 193.57518005 C109.61525635 194.13269958 108.84568604 194.69021912 108.05279541 195.26463318 C100.00108983 201.07346471 100.00108983 201.07346471 93.25982666 200.38768005 C90.5100635 198.96796941 88.21100206 197.09289621 85.82232666 195.13768005 C84.42425407 194.04086059 83.02580482 192.9445211 81.62701416 191.84861755 C80.91255127 191.27981873 80.19808838 190.7110199 79.4619751 190.12498474 C75.84185073 187.26901966 72.14269298 184.52009954 68.44732666 181.76268005 C67.43424438 181.00036072 67.43424438 181.00036072 66.4006958 180.22264099 C65.77026367 179.74858826 65.13983154 179.27453552 64.49029541 178.78611755 C63.9375293 178.37023376 63.38476318 177.95434998 62.81524658 177.52586365 C58.79849454 174.58659226 56.78663616 174.14074936 51.83575439 174.1481781 C51.18813644 174.14616394 50.54051849 174.14414978 49.87327576 174.14207458 C48.46717696 174.13853076 47.06106223 174.13929412 45.65496635 174.14385033 C43.42126606 174.14945439 41.18808309 174.14026474 38.954422 174.12664795 C32.60364622 174.08958394 26.25304159 174.07091493 19.90216064 174.08226013 C16.01453734 174.08815155 12.12763607 174.06965056 8.24015999 174.03637123 C6.76637861 174.02847381 5.29251732 174.02961663 3.8187542 174.04039574 C-6.05220115 174.10942759 -14.31530915 173.36714176 -21.87593079 166.42727661 C-29.62777551 158.45878805 -30.18801952 150.06223705 -30.17596436 139.42918396 C-30.18604019 138.14685379 -30.19611603 136.86452362 -30.20649719 135.54333496 C-30.23285612 132.04527135 -30.24002455 128.54742826 -30.24194455 125.04927492 C-30.24408493 122.85877379 -30.25050449 120.66832779 -30.2584362 118.47784042 C-30.28614118 110.82177453 -30.2984476 103.16586473 -30.29608154 95.50975037 C-30.29427968 88.39539897 -30.32593831 81.28173033 -30.37331253 74.16755164 C-30.41265016 68.03986386 -30.42862866 61.9123983 -30.42671531 55.78458536 C-30.4259537 52.13331746 -30.43431949 48.48265731 -30.46624947 44.83151627 C-30.50092647 40.75553062 -30.48698636 36.68105859 -30.46893311 32.60496521 C-30.49422089 30.81227455 -30.49422089 30.81227455 -30.52001953 28.98336792 C-30.4311142 21.06133043 -28.77708089 15.59121277 -23.74017334 9.38768005 C-16.63385452 2.77453978 -9.6011802 -0.07311593 0 0 Z " fill="#EFEFEA" transform="translate(222.74017333984375,394.61231994628906)"/>
<path d="M0 0 C7.92 0 15.84 0 24 0 C24 8.25 24 16.5 24 25 C21.36 25 18.72 25 16 25 C16 27.64 16 30.28 16 33 C29.86 33 43.72 33 58 33 C58 35.64 58 38.28 58 41 C71.53 41 85.06 41 99 41 C99 43.64 99 46.28 99 49 C101.64 49 104.28 49 107 49 C107 51.97 107 54.94 107 58 C109.64 58 112.28 58 115 58 C115 63.28 115 68.56 115 74 C120.61 74 126.22 74 132 74 C132 76.97 132 79.94 132 83 C134.64 83 137.28 83 140 83 C140 99.5 140 116 140 133 C137.36 133 134.72 133 132 133 C132 135.64 132 138.28 132 141 C129.36 141 126.72 141 124 141 C124 143.64 124 146.28 124 149 C121.03 149 118.06 149 115 149 C115 154.28 115 159.56 115 165 C112.36 165 109.72 165 107 165 C107 167.97 107 170.94 107 174 C104.36 174 101.72 174 99 174 C99 176.64 99 179.28 99 182 C41.58 182 -15.84 182 -75 182 C-75 179.36 -75 176.72 -75 174 C-77.64 174 -80.28 174 -83 174 C-83 168.39 -83 162.78 -83 157 C-85.64 157 -88.28 157 -91 157 C-91 154.36 -91 151.72 -91 149 C-96.61 149 -102.22 149 -108 149 C-108 146.36 -108 143.72 -108 141 C-110.64 141 -113.28 141 -116 141 C-116 124.5 -116 108 -116 91 C-113.36 91 -110.72 91 -108 91 C-108 88.03 -108 85.06 -108 82 C-102.72 82 -97.44 82 -92 82 C-92 79.36 -92 76.72 -92 74 C-89.03 74 -86.06 74 -83 74 C-83 68.72 -83 63.44 -83 58 C-80.36 58 -77.72 58 -75 58 C-75 55.03 -75 52.06 -75 49 C-72.36 49 -69.72 49 -67 49 C-67 46.36 -67 43.72 -67 41 C-42.25 41 -17.5 41 8 41 C8 38.36 8 35.72 8 33 C5.36 33 2.72 33 0 33 C0 30.36 0 27.72 0 25 C-2.64 25 -5.28 25 -8 25 C-8 19.72 -8 14.44 -8 9 C-5.69 9 -3.38 9 -1 9 C-1 11.64 -1 14.28 -1 17 C4.61 17 10.22 17 16 17 C16 14.03 16 11.06 16 8 C10.72 8 5.44 8 0 8 C0 5.36 0 2.72 0 0 Z " fill="#D1D1CF" transform="translate(308,138)"/>
<path d="M0 0 C0.85576575 -0.00538554 1.71153149 -0.01077108 2.59322953 -0.01631981 C5.44806374 -0.03057642 8.30243275 -0.02350127 11.1572876 -0.01637268 C13.2094154 -0.02207756 15.26154003 -0.02904228 17.31365967 -0.03717041 C22.87996771 -0.05510692 28.44611814 -0.05393209 34.0124464 -0.04822803 C38.6643068 -0.04513593 43.31613693 -0.0512291 47.96799302 -0.05726677 C58.94713247 -0.07131294 69.92619412 -0.06975081 80.90533447 -0.05836487 C92.21781266 -0.04689218 103.53005354 -0.06094495 114.84250045 -0.08776134 C124.56589224 -0.10994472 134.28920969 -0.11654951 144.01262498 -0.11068493 C149.81501079 -0.10731944 155.61724462 -0.10970304 161.41960907 -0.12693596 C166.87965823 -0.14244421 172.33935718 -0.13840631 177.7993927 -0.11963081 C179.7975737 -0.11595524 181.79578086 -0.11902314 183.79393768 -0.1295166 C195.26110151 -0.1851149 204.95416526 0.00428322 215.07232666 6.07518005 C221.02291729 12.36580444 224.36793545 18.09176714 224.40699768 26.78140259 C224.41773064 28.42352219 224.41773064 28.42352219 224.42868042 30.09881592 C224.43136932 31.29524216 224.43405823 32.4916684 224.43682861 33.72434998 C224.44339981 34.98819519 224.44997101 36.25204041 224.45674133 37.55418396 C224.47773855 41.74215943 224.48814071 45.93013507 224.49810791 50.1181488 C224.5021573 51.56296113 224.50627428 53.00777327 224.51045799 54.45258522 C224.52950136 61.24265032 224.54373331 68.03270462 224.55206996 74.82279128 C224.56183488 82.64584908 224.58813824 90.46862337 224.62857085 98.29158133 C224.65879171 104.34780586 224.67354453 110.40394939 224.67685097 116.46024781 C224.67919496 120.07286159 224.68806944 123.6851722 224.71331215 127.2977047 C224.74105627 131.33332859 224.7367436 135.36832409 224.72979736 139.40403748 C224.74901245 141.1834951 224.74901245 141.1834951 224.76861572 142.99890137 C224.71046075 152.2855627 222.57311768 159.92090225 216.11634827 166.82922363 C208.39089652 173.31435143 199.90924815 174.04180001 190.17771339 173.73474312 C188.03376005 173.671112 185.89236607 173.64664998 183.74754333 173.63241577 C177.65965798 173.58759994 171.57396478 173.49412608 165.48809814 173.32981873 C143.70119644 172.13293347 143.70119644 172.13293347 124.93772888 181.64778137 C123.84634665 182.71726796 122.77159398 183.80409105 121.71731567 184.91017151 C119.62604787 187.0301642 117.27295768 188.67618624 114.83013916 190.3681488 C114.07861572 190.91148865 113.32709229 191.45482849 112.55279541 192.01463318 C111.47965088 192.78710388 111.47965088 192.78710388 110.38482666 193.57518005 C109.61525635 194.13269958 108.84568604 194.69021912 108.05279541 195.26463318 C100.00108983 201.07346471 100.00108983 201.07346471 93.25982666 200.38768005 C90.5100635 198.96796941 88.21100206 197.09289621 85.82232666 195.13768005 C84.42425407 194.04086059 83.02580482 192.9445211 81.62701416 191.84861755 C80.91255127 191.27981873 80.19808838 190.7110199 79.4619751 190.12498474 C75.84185073 187.26901966 72.14269298 184.52009954 68.44732666 181.76268005 C67.43424438 181.00036072 67.43424438 181.00036072 66.4006958 180.22264099 C65.77026367 179.74858826 65.13983154 179.27453552 64.49029541 178.78611755 C63.9375293 178.37023376 63.38476318 177.95434998 62.81524658 177.52586365 C58.79849454 174.58659226 56.78663616 174.14074936 51.83575439 174.1481781 C51.18813644 174.14616394 50.54051849 174.14414978 49.87327576 174.14207458 C48.46717696 174.13853076 47.06106223 174.13929412 45.65496635 174.14385033 C43.42126606 174.14945439 41.18808309 174.14026474 38.954422 174.12664795 C32.60364622 174.08958394 26.25304159 174.07091493 19.90216064 174.08226013 C16.01453734 174.08815155 12.12763607 174.06965056 8.24015999 174.03637123 C6.76637861 174.02847381 5.29251732 174.02961663 3.8187542 174.04039574 C-6.05220115 174.10942759 -14.31530915 173.36714176 -21.87593079 166.42727661 C-29.62777551 158.45878805 -30.18801952 150.06223705 -30.17596436 139.42918396 C-30.18604019 138.14685379 -30.19611603 136.86452362 -30.20649719 135.54333496 C-30.23285612 132.04527135 -30.24002455 128.54742826 -30.24194455 125.04927492 C-30.24408493 122.85877379 -30.25050449 120.66832779 -30.2584362 118.47784042 C-30.28614118 110.82177453 -30.2984476 103.16586473 -30.29608154 95.50975037 C-30.29427968 88.39539897 -30.32593831 81.28173033 -30.37331253 74.16755164 C-30.41265016 68.03986386 -30.42862866 61.9123983 -30.42671531 55.78458536 C-30.4259537 52.13331746 -30.43431949 48.48265731 -30.46624947 44.83151627 C-30.50092647 40.75553062 -30.48698636 36.68105859 -30.46893311 32.60496521 C-30.49422089 30.81227455 -30.49422089 30.81227455 -30.52001953 28.98336792 C-30.4311142 21.06133043 -28.77708089 15.59121277 -23.74017334 9.38768005 C-16.63385452 2.77453978 -9.6011802 -0.07311593 0 0 Z M-10.74017334 22.38768005 C-11.98471132 24.87675601 -11.87431192 26.5543474 -11.88734436 29.34002686 C-11.89449966 30.38731964 -11.90165497 31.43461243 -11.9090271 32.51364136 C-11.911716 33.6674379 -11.91440491 34.82123444 -11.91717529 36.00999451 C-11.92374649 37.22145142 -11.93031769 38.43290833 -11.93708801 39.68107605 C-11.95344346 43.0097124 -11.96505025 46.33828513 -11.97329354 49.66694665 C-11.97844345 51.74646456 -11.98451919 53.82597802 -11.99080467 55.90549278 C-12.00985746 62.41150239 -12.02408827 68.91750064 -12.03241664 75.42353278 C-12.04218973 82.93423296 -12.06851039 90.44463848 -12.10891753 97.95523483 C-12.13907568 103.75997872 -12.15388521 109.56463813 -12.15719765 115.36945885 C-12.15954856 118.83666214 -12.16851343 122.30355067 -12.19365883 125.77066994 C-12.22126485 129.63960329 -12.2171093 133.50814883 -12.21014404 137.37718201 C-12.2229541 138.52490585 -12.23576416 139.6726297 -12.2489624 140.85513306 C-12.24595125 147.01873747 -12.24595125 147.01873747 -9.83580017 152.57583618 C-6.23873867 155.68579533 -4.08461631 155.47685547 0.61114502 155.37083435 C1.96464385 155.34472257 3.31815524 155.31925634 4.67167664 155.29434204 C5.75205609 155.27273545 5.75205609 155.27273545 6.8542614 155.25069237 C11.50914104 155.17027077 16.16480244 155.15830516 20.82025814 155.13559246 C24.89140275 155.11191879 28.95918667 155.06387472 33.02911377 154.95921326 C66.17043486 154.14375513 66.17043486 154.14375513 79.6206665 166.79759216 C80.22023666 167.39932251 80.81980682 168.00105286 81.43754578 168.62101746 C84.37659012 171.4703585 87.65890153 173.83646484 90.94732666 176.26268005 C92.71976892 177.63560544 94.49131196 179.00969912 96.25982666 180.38768005 C99.23964482 178.99196304 101.80952842 177.36401572 104.45513916 175.41111755 C105.25435791 174.82201599 106.05357666 174.23291443 106.87701416 173.6259613 C107.70459229 173.01107849 108.53217041 172.39619568 109.38482666 171.76268005 C110.18920166 171.17100037 110.99357666 170.57932068 111.82232666 169.9697113 C112.62927979 169.37287537 113.43623291 168.77603943 114.26763916 168.16111755 C115.05327744 167.58745453 115.83891571 167.0137915 116.64836121 166.42274475 C119.25789644 164.47322267 119.25789644 164.47322267 121.360672 162.2993927 C128.7430404 155.2425045 135.94519482 155.31916847 145.59185791 155.52830505 C147.15742332 155.53094854 148.72300055 155.52947168 150.28855896 155.52409363 C154.38238725 155.51835142 158.47446552 155.55656219 162.56793213 155.60795593 C169.13515363 155.68590087 175.70226966 155.70941261 182.26990318 155.70786285 C184.55548364 155.71568064 186.83951305 155.75047651 189.12477112 155.78813171 C190.5276141 155.79520901 191.93046181 155.80142004 193.33331299 155.80662537 C195.16337639 155.82949615 195.16337639 155.82949615 197.03041077 155.85282898 C200.88886278 155.29707683 202.51190975 154.09588394 205.25982666 151.38768005 C206.50366966 148.89999405 206.3967428 147.21948536 206.41372681 144.43533325 C206.42232727 143.38804047 206.43092773 142.34074768 206.43978882 141.26171875 C206.44404877 140.10792221 206.44830872 138.95412567 206.45269775 137.7653656 C206.46087524 136.55390869 206.46905273 135.34245178 206.47747803 134.09428406 C206.50236368 130.07099236 206.51900548 126.04773828 206.53326416 122.0243988 C206.53862384 120.63955491 206.54400135 119.25471108 206.54939651 117.86986732 C206.57102512 112.10943726 206.58976195 106.34901001 206.60101891 100.58854961 C206.61725925 92.33219219 206.65043848 84.07630531 206.70741975 75.82012528 C206.74611659 70.01538385 206.76565124 64.21076829 206.77093947 58.40590125 C206.77459336 54.93861708 206.78661708 51.47183475 206.81904221 48.00469017 C206.85470662 44.13571224 206.85075258 40.26732511 206.84332275 36.3981781 C206.85972809 35.25045425 206.87613342 34.10273041 206.89303589 32.92022705 C206.8985516 26.59482055 206.8985516 26.59482055 203.84835815 21.19952393 C199.54983949 18.19077371 196.38563109 18.23931287 191.27037048 18.24050903 C190.43506123 18.23683235 189.59975197 18.23315566 188.73913032 18.22936755 C185.9240015 18.21830375 183.10890955 18.21448233 180.29376221 18.2106781 C178.28189984 18.20441554 176.27003864 18.19776892 174.25817871 18.19076538 C168.78086741 18.17333756 163.30356484 18.16279899 157.82623267 18.15455985 C154.40663802 18.14941399 150.98704611 18.14333811 147.56745338 18.13704872 C136.87538427 18.11799258 126.18332209 18.10376175 115.49123925 18.09543675 C103.13574771 18.08565859 90.78043505 18.05932564 78.42500657 18.01893586 C68.88356422 17.98881174 59.34217326 17.97397144 49.80068427 17.97065574 C44.09787909 17.96830122 38.39526492 17.95928848 32.6925106 17.93419456 C27.32860501 17.91097335 21.96501699 17.90665665 16.60107422 17.91695595 C14.63100442 17.91745285 12.6609193 17.91108708 10.69089699 17.8973999 C8.00362548 17.87977227 5.317505 17.88674182 2.63023376 17.89993286 C1.84851781 17.88896362 1.06680186 17.87799437 0.26139754 17.86669272 C-4.69346996 17.92551415 -7.27364995 18.82738408 -10.74017334 22.38768005 Z " fill="#030303" transform="translate(222.74017333984375,394.61231994628906)"/>
<path d="M0 0 C7.92 0 15.84 0 24 0 C24 8.25 24 16.5 24 25 C21.36 25 18.72 25 16 25 C16 27.64 16 30.28 16 33 C29.86 33 43.72 33 58 33 C58 35.64 58 38.28 58 41 C71.53 41 85.06 41 99 41 C99 43.64 99 46.28 99 49 C101.64 49 104.28 49 107 49 C107 51.97 107 54.94 107 58 C109.64 58 112.28 58 115 58 C115 63.28 115 68.56 115 74 C120.61 74 126.22 74 132 74 C132 76.97 132 79.94 132 83 C134.64 83 137.28 83 140 83 C140 99.5 140 116 140 133 C137.36 133 134.72 133 132 133 C132 135.64 132 138.28 132 141 C129.36 141 126.72 141 124 141 C124 143.64 124 146.28 124 149 C121.03 149 118.06 149 115 149 C115 154.28 115 159.56 115 165 C112.36 165 109.72 165 107 165 C107 167.97 107 170.94 107 174 C104.36 174 101.72 174 99 174 C99 176.64 99 179.28 99 182 C41.58 182 -15.84 182 -75 182 C-75 179.36 -75 176.72 -75 174 C-77.64 174 -80.28 174 -83 174 C-83 168.39 -83 162.78 -83 157 C-80.36 157 -77.72 157 -75 157 C-75 159.97 -75 162.94 -75 166 C-72.36 166 -69.72 166 -67 166 C-67 168.64 -67 171.28 -67 174 C-14.86 174 37.28 174 91 174 C91 171.36 91 168.72 91 166 C93.64 166 96.28 166 99 166 C99 163.03 99 160.06 99 157 C101.64 157 104.28 157 107 157 C107 126.97 107 96.94 107 66 C104.36 66 101.72 66 99 66 C99 63.36 99 60.72 99 58 C96.36 58 93.72 58 91 58 C91 55.36 91 52.72 91 50 C88.03 50 85.06 50 82 50 C82 52.64 82 55.28 82 58 C84.64 58 87.28 58 90 58 C90 85.06 90 112.12 90 140 C87.36 140 84.72 140 82 140 C82 145.61 82 151.22 82 157 C76.72 157 71.44 157 66 157 C66 154.36 66 151.72 66 149 C68.64 149 71.28 149 74 149 C74 143.39 74 137.78 74 132 C76.64 132 79.28 132 82 132 C82 110.22 82 88.44 82 66 C79.36 66 76.72 66 74 66 C74 60.72 74 55.44 74 50 C65.75 50 57.5 50 49 50 C49 47.03 49 44.06 49 41 C38.11 41 27.22 41 16 41 C16 43.97 16 46.94 16 50 C-5.78 50 -27.56 50 -50 50 C-50 52.64 -50 55.28 -50 58 C-52.64 58 -55.28 58 -58 58 C-58 71.86 -58 85.72 -58 100 C-60.64 100 -63.28 100 -66 100 C-66 102.31 -66 104.62 -66 107 C-63.36 107 -60.72 107 -58 107 C-58 120.86 -58 134.72 -58 149 C-55.36 149 -52.72 149 -50 149 C-50 151.64 -50 154.28 -50 157 C-44.39 157 -38.78 157 -33 157 C-33 154.36 -33 151.72 -33 149 C-22.44 149 -11.88 149 -1 149 C-1 151.64 -1 154.28 -1 157 C-8.92 157 -16.84 157 -25 157 C-25 159.64 -25 162.28 -25 165 C-35.89 165 -46.78 165 -58 165 C-58 162.36 -58 159.72 -58 157 C-60.64 157 -63.28 157 -66 157 C-66 143.47 -66 129.94 -66 116 C-68.97 116 -71.94 116 -75 116 C-75 107.75 -75 99.5 -75 91 C-72.03 91 -69.06 91 -66 91 C-66 80.11 -66 69.22 -66 58 C-68.97 58 -71.94 58 -75 58 C-75 55.03 -75 52.06 -75 49 C-72.36 49 -69.72 49 -67 49 C-67 46.36 -67 43.72 -67 41 C-42.25 41 -17.5 41 8 41 C8 38.36 8 35.72 8 33 C5.36 33 2.72 33 0 33 C0 30.36 0 27.72 0 25 C-2.64 25 -5.28 25 -8 25 C-8 19.72 -8 14.44 -8 9 C-5.69 9 -3.38 9 -1 9 C-1 11.64 -1 14.28 -1 17 C4.61 17 10.22 17 16 17 C16 14.03 16 11.06 16 8 C10.72 8 5.44 8 0 8 C0 5.36 0 2.72 0 0 Z " fill="#080808" transform="translate(308,138)"/>
<path d="M0 0 C3.18202158 1.48001004 4.58201972 2.93453241 5.86791992 6.21240234 C6.15256104 7.11941895 6.43720215 8.02643555 6.73046875 8.9609375 C8.46585057 14.3564928 10.25984298 19.72603846 12.1015625 25.0859375 C12.67577853 26.76190807 13.24983049 28.43793485 13.82373047 30.11401367 C14.11809998 30.97336517 14.41246948 31.83271667 14.71575928 32.71810913 C16.58010796 38.16591946 18.43674351 43.61636359 20.29379272 49.06666565 C21.98848565 54.03915637 23.68931706 59.00945853 25.39724731 63.97741699 C26.3446065 66.73918349 27.28442458 69.50346777 28.22186279 72.26861572 C28.85994965 74.14328283 29.50725885 76.01480287 30.15478516 77.88623047 C30.72398682 79.57256592 30.72398682 79.57256592 31.3046875 81.29296875 C31.63452637 82.2574292 31.96436523 83.22188965 32.30419922 84.21557617 C33.36192897 88.44835086 33.56780214 91.75083529 31.75 95.75 C29.84613263 98.19782948 28.97692549 99.17307625 26 100 C21.98560702 99.92831441 19.82033718 99.83286142 16.953125 96.921875 C14.69887152 93.5495118 13.43456774 90.15303251 12.25 86.3125 C12.02957031 85.63638672 11.80914062 84.96027344 11.58203125 84.26367188 C10 79.32596564 10 79.32596564 10 77 C1.09 77 -7.82 77 -17 77 C-17.99 80.63 -18.98 84.26 -20 88 C-23.10675381 96.01742919 -23.10675381 96.01742919 -25.875 99.0625 C-28.8810751 100.3887096 -30.74630939 100.53121479 -34 100 C-36.57285724 97.827365 -38.48996919 96.02006162 -40 93 C-39.91290114 86.79349204 -38.30782413 81.08770902 -36.296875 75.26953125 C-36.02268234 74.45221024 -35.74848969 73.63488922 -35.46598816 72.7928009 C-34.56987724 70.1294807 -33.66061598 67.47089245 -32.75 64.8125 C-32.11997035 62.95705642 -31.49050206 61.10142215 -30.86157227 59.24560547 C-29.88997828 56.38114289 -28.91698201 53.5171948 -27.93971252 50.65466309 C-26.00718016 44.99157597 -24.10772128 39.31908015 -22.24380493 33.63304138 C-21.09346238 30.12730044 -19.93025922 26.62590358 -18.76501465 23.12509155 C-18.21621842 21.46706553 -17.67277973 19.80725595 -17.1348877 18.1456604 C-16.38506708 15.833928 -15.61499077 13.52990454 -14.83984375 11.2265625 C-14.62571335 10.54930618 -14.41158295 9.87204987 -14.19096375 9.17427063 C-11.70327666 1.93262686 -7.66449102 -1.09492729 0 0 Z " fill="#060505" transform="translate(278,432)"/>
<path d="M0 0 C3.0216321 0.73251687 4.80104733 2.27158096 6.93359375 4.46875 C8.41191635 7.42539519 7.99392158 10.21104737 7.93359375 13.46875 C8.80310669 13.44518433 8.80310669 13.44518433 9.69018555 13.42114258 C12.33372114 13.35852209 14.9771003 13.31967482 17.62109375 13.28125 C18.98911133 13.24354492 18.98911133 13.24354492 20.38476562 13.20507812 C28.96589426 13.11146581 28.96589426 13.11146581 32.93359375 16.46875 C35.29445497 20.01004184 35.50628953 21.29625218 34.93359375 25.46875 C33.32226653 28.27992817 32.51685842 29.68178548 29.93359375 31.46875 C26.13812205 32.20941208 22.46964557 32.03580825 18.62109375 31.84375 C17.59435547 31.81667969 16.56761719 31.78960937 15.50976562 31.76171875 C12.98221799 31.69118254 10.45899332 31.59268429 7.93359375 31.46875 C8.04478539 34.80269127 8.17509109 38.13563349 8.30859375 41.46875 C8.33953125 42.40332031 8.37046875 43.33789062 8.40234375 44.30078125 C8.78757859 53.48221153 10.74130196 61.26256182 14.93359375 69.46875 C15.23523438 70.0771875 15.536875 70.685625 15.84765625 71.3125 C19.16359626 76.88125422 24.58513646 79.5658863 30.0703125 82.671875 C32.93359375 84.46875 32.93359375 84.46875 34.93359375 87.46875 C35.43616123 92.09237084 34.79590067 94.7886411 31.93359375 98.46875 C29.4699575 100.40446419 28.02135904 100.46695887 24.87109375 100.53125 C15.07980574 98.70717707 7.4161287 90.43747507 0.93359375 83.46875 C-0.06195197 82.46431548 -1.06013684 81.46244104 -2.06640625 80.46875 C-2.73285156 81.25378906 -3.39929688 82.03882813 -4.0859375 82.84765625 C-17.22007043 97.96947585 -17.22007043 97.96947585 -26.6171875 100.02734375 C-30.5006329 100.23708794 -32.41607676 99.95649712 -35.56640625 97.59375 C-38.07796204 94.03571262 -38.58201766 91.85144701 -38.06640625 87.46875 C-34.64813833 83.08909423 -29.97561143 80.01546792 -25.06640625 77.46875 C-24.40640625 77.46875 -23.74640625 77.46875 -23.06640625 77.46875 C-22.78539062 76.88222656 -22.504375 76.29570312 -22.21484375 75.69140625 C-21.15596183 73.64207356 -19.98430132 71.8126526 -18.69140625 69.90625 C-11.19838705 57.66912989 -11.27125356 45.47783383 -11.06640625 31.46875 C-12.0267981 31.51588135 -12.0267981 31.51588135 -13.0065918 31.56396484 C-15.92200038 31.68908061 -18.83684434 31.76684065 -21.75390625 31.84375 C-23.26500977 31.91916016 -23.26500977 31.91916016 -24.80664062 31.99609375 C-32.10101501 32.14053681 -32.10101501 32.14053681 -34.86938477 30.21411133 C-37.03964259 27.71330238 -38.03187159 25.65677201 -38.62890625 22.40625 C-37.93661264 18.79093892 -36.61049592 17.08766584 -34.06640625 14.46875 C-31.61365484 13.2423743 -30.01582815 13.35459686 -27.27734375 13.37109375 C-26.33632813 13.37431641 -25.3953125 13.37753906 -24.42578125 13.38085938 C-23.4409375 13.38923828 -22.45609375 13.39761719 -21.44140625 13.40625 C-19.95253906 13.41301758 -19.95253906 13.41301758 -18.43359375 13.41992188 C-15.97780465 13.43172855 -13.52213521 13.448196 -11.06640625 13.46875 C-11.10765625 12.38464844 -11.14890625 11.30054688 -11.19140625 10.18359375 C-11.06640625 6.46875 -11.06640625 6.46875 -9.06640625 3.03125 C-5.69697374 0.15319306 -4.27896468 -0.3235512 0 0 Z " fill="#050505" transform="translate(367.06640625,431.53125)"/>
<path d="M0 0 C2.97 0 5.94 0 9 0 C9 2.64 9 5.28 9 8 C11.64 8 14.28 8 17 8 C17 10.64 17 13.28 17 16 C19.64 16 22.28 16 25 16 C25 46.03 25 76.06 25 107 C22.03 107 19.06 107 16 107 C16 109.64 16 112.28 16 115 C13.36 115 10.72 115 8 115 C8 117.64 8 120.28 8 123 C-43.48 123 -94.96 123 -148 123 C-148 120.69 -148 118.38 -148 116 C-147.67 116 -147.34 116 -147 116 C-147 117.98 -147 119.96 -147 122 C-109.38 122 -71.76 122 -33 122 C-33 120.02 -33 118.04 -33 116 C-27.39 116 -21.78 116 -16 116 C-16 113.03 -16 110.06 -16 107 C-10.72 107 -5.44 107 0 107 C0 101.39 0 95.78 0 90 C2.64 90 5.28 90 8 90 C8 62.94 8 35.88 8 8 C5.36 8 2.72 8 0 8 C0 5.36 0 2.72 0 0 Z " fill="#D1D1CF" transform="translate(390,188)"/>
<path d="M0 0 C2.64 0 5.28 0 8 0 C8 27.06 8 54.12 8 82 C5.36 82 2.72 82 0 82 C0 79.36 0 76.72 0 74 C-5.61 74 -11.22 74 -17 74 C-17 71.36 -17 68.72 -17 66 C-19.64 66 -22.28 66 -25 66 C-25 49.5 -25 33 -25 16 C-22.36 16 -19.72 16 -17 16 C-17 13.36 -17 10.72 -17 8 C-11.39 8 -5.78 8 0 8 C0 5.36 0 2.72 0 0 Z " fill="#040403" transform="translate(217,213)"/>
<path d="M0 0 C5.61 0 11.22 0 17 0 C17 10.89 17 21.78 17 33 C14.03 33 11.06 33 8 33 C8 41.25 8 49.5 8 58 C10.97 58 13.94 58 17 58 C17 71.53 17 85.06 17 99 C19.64 99 22.28 99 25 99 C25 101.64 25 104.28 25 107 C24.67 107 24.34 107 24 107 C24 104.69 24 102.38 24 100 C23.01 100.33 22.02 100.66 21 101 C19.77479736 104.00847418 19.77479736 104.00847418 19 107 C18.34 107 17.68 107 17 107 C17 109.64 17 112.28 17 115 C68.48 115 119.96 115 173 115 C173 112.36 173 109.72 173 107 C175.64 107 178.28 107 181 107 C181 104.36 181 101.72 181 99 C181.33 99 181.66 99 182 99 C182 101.97 182 104.94 182 108 C179.36 108 176.72 108 174 108 C174 110.64 174 113.28 174 116 C121.86 116 69.72 116 16 116 C16 113.36 16 110.72 16 108 C13.36 108 10.72 108 8 108 C8 105.03 8 102.06 8 99 C5.36 99 2.72 99 0 99 C0 71.94 0 44.88 0 17 C-2.64 17 -5.28 17 -8 17 C-8 19.64 -8 22.28 -8 25 C-13.61 25 -19.22 25 -25 25 C-25 24.67 -25 24.34 -25 24 C-19.72 24 -14.44 24 -9 24 C-9 21.36 -9 18.72 -9 16 C-6.03 16 -3.06 16 0 16 C0 10.72 0 5.44 0 0 Z " fill="#CBCBCA" transform="translate(225,196)"/>
<path d="M0 0 C11.22 0 22.44 0 34 0 C34 5.61 34 11.22 34 17 C55.45 17 76.9 17 99 17 C99 11.72 99 6.44 99 1 C99.33 1 99.66 1 100 1 C100 6.61 100 12.22 100 18 C94.39 18 88.78 18 83 18 C83 19.98 83 21.96 83 24 C45.38 24 7.76 24 -31 24 C-32 17 -32 17 -30.5625 14.75 C-30.046875 14.1725 -29.53125 13.595 -29 13 C-29 12.01 -29 11.02 -29 10 C-27.68 10 -26.36 10 -25 10 C-25 12.31 -25 14.62 -25 17 C-13.78 17 -2.56 17 9 17 C9 14.36 9 11.72 9 9 C16.92 9 24.84 9 33 9 C33 6.36 33 3.72 33 1 C22.44 1 11.88 1 1 1 C1 3.64 1 6.28 1 9 C0.67 9 0.34 9 0 9 C0 6.03 0 3.06 0 0 Z " fill="#C6C6C4" transform="translate(274,286)"/>
<path d="M0 0 C2.97 0 5.94 0 9 0 C9 16.5 9 33 9 50 C6.03 50 3.06 50 0 50 C0 47.36 0 44.72 0 42 C-2.64 42 -5.28 42 -8 42 C-8 30.78 -8 19.56 -8 8 C-5.36 8 -2.72 8 0 8 C0 5.36 0 2.72 0 0 Z " fill="#C5C5C3" transform="translate(208,229)"/>
<path d="M0 0 C2.64 0 5.28 0 8 0 C8 2.64 8 5.28 8 8 C10.97 8 13.94 8 17 8 C17 18.89 17 29.78 17 41 C14.03 41 11.06 41 8 41 C8 43.64 8 46.28 8 49 C5.36 49 2.72 49 0 49 C0 32.83 0 16.66 0 0 Z " fill="#CCCCCA" transform="translate(423,221)"/>
<path d="M0 0 C2.64 0 5.28 0 8 0 C8 5.28 8 10.56 8 16 C5.36 16 2.72 16 0 16 C0 18.97 0 21.94 0 25 C-2.64 25 -5.28 25 -8 25 C-8 27.64 -8 30.28 -8 33 C-10.97 33 -13.94 33 -17 33 C-17 35.64 -17 38.28 -17 41 C-19.64 41 -22.28 41 -25 41 C-25 35.39 -25 29.78 -25 24 C-22.36 24 -19.72 24 -17 24 C-17 21.36 -17 18.72 -17 16 C-14.36 16 -11.72 16 -9 16 C-9 13.36 -9 10.72 -9 8 C-6.03 8 -3.06 8 0 8 C0 5.36 0 2.72 0 0 Z " fill="#F4F4EE" transform="translate(283,196)"/>
<path d="M0 0 C5.28 0 10.56 0 16 0 C16 2.64 16 5.28 16 8 C13.36 8 10.72 8 8 8 C8 13.28 8 18.56 8 24 C5.36 24 2.72 24 0 24 C0 26.97 0 29.94 0 33 C-2.64 33 -5.28 33 -8 33 C-8 35.64 -8 38.28 -8 41 C-10.97 41 -13.94 41 -17 41 C-17 35.39 -17 29.78 -17 24 C-14.36 24 -11.72 24 -9 24 C-9 21.36 -9 18.72 -9 16 C-6.03 16 -3.06 16 0 16 C0 10.72 0 5.44 0 0 Z " fill="#F4F4EE" transform="translate(374,238)"/>
<path d="M0 0 C21.45 0 42.9 0 65 0 C65 2.64 65 5.28 65 8 C43.55 8 22.1 8 0 8 C0 5.36 0 2.72 0 0 Z " fill="#040404" transform="translate(308,295)"/>
<path d="M0 0 C2.97 0 5.94 0 9 0 C9 10.89 9 21.78 9 33 C3.39 33 -2.22 33 -8 33 C-8 24.75 -8 16.5 -8 8 C-5.36 8 -2.72 8 0 8 C0 5.36 0 2.72 0 0 Z " fill="#0B0B0B" transform="translate(340,229)"/>
<path d="M0 0 C2.64 0 5.28 0 8 0 C8 10.89 8 21.78 8 33 C2.72 33 -2.56 33 -8 33 C-8 24.75 -8 16.5 -8 8 C-5.36 8 -2.72 8 0 8 C0 5.36 0 2.72 0 0 Z " fill="#030303" transform="translate(291,229)"/>
<path d="M0 0 C0.33 0 0.66 0 1 0 C1 13.53 1 27.06 1 41 C3.64 41 6.28 41 9 41 C9 43.64 9 46.28 9 49 C8.67 49 8.34 49 8 49 C8 46.69 8 44.38 8 42 C6.515 42.495 6.515 42.495 5 43 C3.77479736 46.00847418 3.77479736 46.00847418 3 49 C2.34 49 1.68 49 1 49 C1 51.64 1 54.28 1 57 C52.48 57 103.96 57 157 57 C157 54.36 157 51.72 157 49 C159.64 49 162.28 49 165 49 C165 46.36 165 43.72 165 41 C165.33 41 165.66 41 166 41 C166 43.97 166 46.94 166 50 C163.36 50 160.72 50 158 50 C158 52.64 158 55.28 158 58 C105.86 58 53.72 58 0 58 C0 55.36 0 52.72 0 50 C-2.64 50 -5.28 50 -8 50 C-8 47.03 -8 44.06 -8 41 C-7.67 41 -7.34 41 -7 41 C-7 43.64 -7 46.28 -7 49 C-6.7525 48.360625 -6.505 47.72125 -6.25 47.0625 C-5 45 -5 45 -1 44 C-0.67 29.48 -0.34 14.96 0 0 Z " fill="#8D8D8B" transform="translate(241,254)"/>
<path d="M0 0 C0.33 0 0.66 0 1 0 C1 1.98 1 3.96 1 6 C38.62 6 76.24 6 115 6 C115 4.02 115 2.04 115 0 C120.61 0 126.22 0 132 0 C132 2.31 132 4.62 132 7 C88.44 7 44.88 7 0 7 C0 4.69 0 2.38 0 0 Z " fill="#DFDFDE" transform="translate(242,304)"/>
<path d="M0 0 C2.97 0 5.94 0 9 0 C9 30.03 9 60.06 9 91 C6.03 91 3.06 91 0 91 C0 90.67 0 90.34 0 90 C2.64 90 5.28 90 8 90 C8 62.94 8 35.88 8 8 C5.36 8 2.72 8 0 8 C0 5.36 0 2.72 0 0 Z " fill="#70706F" transform="translate(390,188)"/>
<path d="M0 0 C2.70353012 2.70353012 3.46754496 5.82188219 4.625 9.375 C4.85445313 10.04789062 5.08390625 10.72078125 5.3203125 11.4140625 C6.44631186 14.81887008 7 17.37395155 7 21 C2.71 21 -1.58 21 -6 21 C-5.42381249 15.85404946 -4.25256722 11.44921945 -2.4375 6.5625 C-1.98246094 5.32628906 -1.52742188 4.09007812 -1.05859375 2.81640625 C-0.70925781 1.88699219 -0.35992187 0.95757812 0 0 Z " fill="#E3E3DF" transform="translate(274,470)"/>
<path d="M0 0 C2.64 0 5.28 0 8 0 C8 5.61 8 11.22 8 17 C5.36 17 2.72 17 0 17 C0 11.39 0 5.78 0 0 Z " fill="#F5F5EE" transform="translate(233,270)"/>
<path d="M0 0 C2.64 0 5.28 0 8 0 C8 5.28 8 10.56 8 16 C5.36 16 2.72 16 0 16 C0 10.72 0 5.44 0 0 Z " fill="#F5F5EE" transform="translate(201,238)"/>
<path d="M0 0 C2.64 0 5.28 0 8 0 C8 5.28 8 10.56 8 16 C5.36 16 2.72 16 0 16 C0 10.72 0 5.44 0 0 Z " fill="#F4F5F0" transform="translate(431,230)"/>
<path d="M0 0 C2.64 0 5.28 0 8 0 C8 5.28 8 10.56 8 16 C5.36 16 2.72 16 0 16 C0 10.72 0 5.44 0 0 Z " fill="#060505" transform="translate(225,196)"/>
<path d="M0 0 C5.61 0 11.22 0 17 0 C17 2.31 17 4.62 17 7 C11.39 7 5.78 7 0 7 C0 4.69 0 2.38 0 0 Z " fill="#F6F7F1" transform="translate(357,304)"/>
<path d="M0 0 C2.31 0 4.62 0 7 0 C7 5.28 7 10.56 7 16 C4.69 16 2.38 16 0 16 C0 10.72 0 5.44 0 0 Z " fill="#F7F7F1" transform="translate(407,229)"/>
<path d="M0 0 C5.28 0 10.56 0 16 0 C16 2.31 16 4.62 16 7 C10.72 7 5.44 7 0 7 C0 4.69 0 2.38 0 0 Z " fill="#F7F8F2" transform="translate(308,147)"/>
<path d="M0 0 C0.33 0 0.66 0 1 0 C1 13.53 1 27.06 1 41 C3.64 41 6.28 41 9 41 C9 43.64 9 46.28 9 49 C8.67 49 8.34 49 8 49 C8 46.69 8 44.38 8 42 C6.515 42.495 6.515 42.495 5 43 C3.77479736 46.00847418 3.77479736 46.00847418 3 49 C0.03 48.67 -2.94 48.34 -6 48 C-5.67 47.01 -5.34 46.02 -5 45 C-3.02 44.505 -3.02 44.505 -1 44 C-0.67 29.48 -0.34 14.96 0 0 Z " fill="#A6A6A4" transform="translate(241,254)"/>
<path d="M0 0 C0.33 0 0.66 0 1 0 C1 2.64 1 5.28 1 8 C6.28 8 11.56 8 17 8 C17 8.33 17 8.66 17 9 C11.72 9 6.44 9 1 9 C1 11.31 1 13.62 1 16 C6.28 16 11.56 16 17 16 C17 16.33 17 16.66 17 17 C11.39 17 5.78 17 0 17 C0 14.36 0 11.72 0 9 C-2.31 9 -4.62 9 -7 9 C-7 14.28 -7 19.56 -7 25 C-7.33 25 -7.66 25 -8 25 C-8 19.39 -8 13.78 -8 8 C-5.36 8 -2.72 8 0 8 C0 5.36 0 2.72 0 0 Z " fill="#7F7E7C" transform="translate(307,138)"/>
<path d="M0 0 C2.64 0 5.28 0 8 0 C8 2.64 8 5.28 8 8 C5.36 8 2.72 8 0 8 C0 5.36 0 2.72 0 0 Z " fill="#CCCCCB" transform="translate(390,188)"/>
<path d="M0 0 C2.59482129 2.59482129 2.69990302 4.39883625 3 8 C2.34 8.66 1.68 9.32 1 10 C-0.32 10 -1.64 10 -3 10 C-2.01 6.7 -1.02 3.4 0 0 Z " fill="#DCDCD9" transform="translate(274,470)"/>
<path d="M0 0 C0.66 0.33 1.32 0.66 2 1 C0.88200014 2.33920838 -0.24461897 3.67122556 -1.375 5 C-2.00148438 5.7425 -2.62796875 6.485 -3.2734375 7.25 C-4.12808594 8.11625 -4.12808594 8.11625 -5 9 C-5.66 9 -6.32 9 -7 9 C-5.44499019 5.18315774 -2.96404505 2.80804268 0 0 Z " fill="#E0DFDC" transform="translate(360,517)"/>
<path d="M0 0 C0 3 0 3 -1.1875 4.6875 C-3.55741722 6.40364695 -5.14025666 6.23187108 -8 6 C-5.38485683 3.87961365 -2.80362384 1.86908256 0 0 Z " fill="#DCDBD8" transform="translate(331,589)"/>
<path d="M0 0 C1.32 0.66 2.64 1.32 4 2 C4.33 1.34 4.66 0.68 5 0 C4.67 1.65 4.34 3.3 4 5 C2.35 5 0.7 5 -1 5 C-0.67 3.35 -0.34 1.7 0 0 Z " fill="#D4D5D1" transform="translate(272,475)"/>
</svg>
